<svg width="414" height="186" viewBox="0 0 414 186" fill="none" xmlns="http://www.w3.org/2000/svg">
<path d="M371.716 138.601C363.825 138.601 354.507 124.19 346.281 111.461C340.886 103.124 335.648 95.0207 330.075 89.1691H348.521V80.2524H325.895C329.941 75.638 333.775 69.7195 337.71 63.645C343.884 54.0818 351.575 42.1892 357.449 42.1892H374.747V33.2725H357.449C346.716 33.2725 338.702 45.6778 330.22 58.8077C324.045 68.3597 316.354 80.2524 310.469 80.2524H113.031C107.157 80.2524 99.4662 68.3597 93.2914 58.8077C84.7982 45.6778 76.7843 33.3059 66.0619 33.3059H48.7523V42.2226H66.0619C71.9358 42.2226 79.6265 54.1153 85.8013 63.6785C89.7247 69.753 93.6034 75.6714 97.6048 80.2858H17.4658V89.2026H107.369C101.796 95.0541 96.5459 103.157 91.1625 111.494C82.9368 124.212 73.6188 138.635 65.7275 138.635H32.9363V147.551H65.7498C78.4896 147.551 88.298 132.393 98.6637 116.343C106.889 103.614 116.207 89.2026 124.099 89.2026H313.356C321.247 89.2026 330.565 103.614 338.791 116.343C349.168 132.393 358.965 147.551 371.716 147.551H404.507V138.635L371.716 138.601Z" fill="#263238"/>
<g opacity="0.4">
<path d="M321.794 87.0415L321.326 87.7325C327.89 92.2578 334.11 101.397 340.965 111.986L341.667 111.529C334.756 100.862 328.492 91.6559 321.794 87.0415Z" fill="white"/>
<path d="M350.349 124.702L349.658 125.181C352.577 129.599 355.938 133.707 359.69 137.442L360.258 136.829C356.547 133.138 353.227 129.074 350.349 124.702Z" fill="white"/>
<path d="M343.094 115.285C344.543 117.514 345.981 119.743 347.43 121.883L348.121 121.415C346.683 119.264 345.245 117.046 343.796 114.828L343.094 115.285Z" fill="white"/>
<path d="M363.345 139.192L362.855 139.861C365.39 141.906 368.517 143.078 371.772 143.204H393.885V142.368H371.716C368.658 142.229 365.726 141.116 363.345 139.192Z" fill="white"/>
<path d="M404.507 142.403H397.82V143.239H404.507V142.403Z" fill="white"/>
<path d="M24.1536 84.0542H17.4661V84.8901H24.1536V84.0542Z" fill="white"/>
<path d="M56.5654 84.0542H30.6289V84.8901H56.5654V84.0542Z" fill="white"/>
<path d="M63.0532 84.0547V84.8907H114.915V84.0547H113.031C110.865 83.9879 108.769 83.2735 107.013 82.0039L106.556 82.7061C107.344 83.2321 108.18 83.6835 109.052 84.0547H63.0532Z" fill="white"/>
<path d="M276.998 84.0542H251.062V84.8901H276.998V84.0542Z" fill="white"/>
<path d="M335.347 84.8907V84.0547H314.459C315.331 83.6812 316.166 83.2298 316.956 82.7061L316.488 82.0039C314.733 83.2754 312.636 83.9899 310.469 84.0547H283.485V84.8907H313.356C314.94 84.9054 316.504 85.235 317.959 85.8604L318.282 85.0913L317.725 84.8907H335.347Z" fill="white"/>
<path d="M244.575 84.0542H231.612V84.8901H244.575V84.0542Z" fill="white"/>
<path d="M225.125 84.0542H173.264V84.8901H225.125V84.0542Z" fill="white"/>
<path d="M348.521 84.0542H341.833V84.8901H348.521V84.0542Z" fill="white"/>
<path d="M332.449 64.0917L331.747 63.6348C328.27 68.9736 324.224 74.9924 320.156 78.9938L320.735 79.5845C324.87 75.5274 328.95 69.4641 332.449 64.0917Z" fill="white"/>
<path d="M357.449 37.9102H363.223V37.0742H357.449C348.934 37.0742 341.199 49.0226 334.377 59.5666L335.08 60.0236C341.789 49.6579 349.391 37.9102 357.449 37.9102Z" fill="white"/>
<path d="M374.748 37.0742H368.06V37.9102H374.748V37.0742Z" fill="white"/>
<path d="M103.357 79.0045C99.2773 75.0032 95.2313 68.9732 91.7649 63.6455L91.0627 64.1025C94.5626 69.4748 98.642 75.5382 102.766 79.5953L103.357 79.0045Z" fill="white"/>
<path d="M88.4321 60.0563L89.1343 59.5993C82.3019 49.0553 74.5666 37.1069 66.0623 37.1069H60.2776V37.9429H66.0623C74.1096 37.9094 81.7223 49.6572 88.4321 60.0563Z" fill="white"/>
<path d="M55.4405 37.0742H48.7529V37.9102H55.4405V37.0742Z" fill="white"/>
<path d="M140.851 84.0542H138.878V84.8901H140.851H145.566H166.787V84.0542H145.566H140.851Z" fill="white"/>
<path d="M95.7769 111.529L96.4791 111.986C103.334 101.397 109.542 92.2578 116.118 87.7325L115.639 87.0415C108.94 91.6559 102.676 100.862 95.7769 111.529Z" fill="white"/>
<path d="M124.077 84.0542H121.402V84.3774C120.64 84.5518 119.894 84.7904 119.172 85.0908L119.496 85.8598C120.951 85.2367 122.516 84.9072 124.099 84.8901H134.955V84.0542H124.099H124.077Z" fill="white"/>
<path d="M65.75 142.404H43.6143V143.24H65.75C69.0051 143.116 72.1329 141.943 74.6667 139.896L74.1763 139.227C71.7809 141.162 68.8268 142.276 65.75 142.404Z" fill="white"/>
<path d="M89.3125 121.415L90.0147 121.883C91.4525 119.721 92.9015 117.503 94.3393 115.285L93.6371 114.828C92.1993 117.046 90.7615 119.264 89.3125 121.415Z" fill="white"/>
<path d="M77.1302 136.74L77.7098 137.353C81.4647 133.621 84.8261 129.512 87.7411 125.093L87.0612 124.613C84.1768 128.986 80.8488 133.05 77.1302 136.74Z" fill="white"/>
<path d="M39.6239 142.403H32.9364V143.239H39.6239V142.403Z" fill="white"/>
</g>
<path d="M66.1066 121.526H57.9478C57.0014 121.527 56.0698 121.761 55.2357 122.208C54.4016 122.656 53.6908 123.302 53.1662 124.089L51.9736 125.895C51.4947 126.619 50.8439 127.212 50.0795 127.622C49.3151 128.033 48.4609 128.247 47.5933 128.247H26.4941C26.0438 128.247 25.5979 128.336 25.182 128.508C24.7662 128.681 24.3884 128.934 24.0706 129.253C23.7527 129.572 23.5008 129.95 23.3295 130.367C23.1582 130.783 23.0708 131.229 23.0723 131.68V164.594H70.6095V128.247L70.186 125.093C70.0536 124.105 69.567 123.199 68.8167 122.542C68.0663 121.886 67.1033 121.525 66.1066 121.526Z" fill="#407BFF"/>
<path opacity="0.2" d="M66.1066 121.526H57.9478C57.0014 121.527 56.0698 121.761 55.2357 122.208C54.4016 122.656 53.6908 123.302 53.1662 124.089L51.9736 125.895C51.4947 126.619 50.8439 127.212 50.0795 127.622C49.3151 128.033 48.4609 128.247 47.5933 128.247H26.4941C26.0438 128.247 25.5979 128.336 25.182 128.508C24.7662 128.681 24.3884 128.934 24.0706 129.253C23.7527 129.572 23.5008 129.95 23.3295 130.367C23.1582 130.783 23.0708 131.229 23.0723 131.68V164.594H70.6095V128.247L70.186 125.093C70.0536 124.105 69.567 123.199 68.8167 122.542C68.0663 121.886 67.1033 121.525 66.1066 121.526Z" fill="white"/>
<path d="M67.0429 132.415H26.639V160.046H67.0429V132.415Z" fill="#263238"/>
<path opacity="0.9" d="M67.0429 132.415H26.639V160.046H67.0429V132.415Z" fill="white"/>
<path d="M70.6092 164.593H23.0719L16.0946 139.192C15.9732 138.743 15.9567 138.272 16.0464 137.816C16.1361 137.359 16.3296 136.93 16.612 136.56C16.8943 136.19 17.2578 135.891 17.6745 135.684C18.0912 135.478 18.5498 135.37 19.0148 135.369H58.0255C59.3523 135.372 60.6415 135.81 61.6962 136.615C62.7509 137.42 63.5129 138.548 63.8659 139.827L70.6092 164.593Z" fill="#407BFF"/>
<path opacity="0.6" d="M70.6092 164.593H23.0719L16.0946 139.192C15.9732 138.743 15.9567 138.272 16.0464 137.816C16.1361 137.359 16.3296 136.93 16.612 136.56C16.8943 136.19 17.2578 135.891 17.6745 135.684C18.0912 135.478 18.5498 135.37 19.0148 135.369H58.0255C59.3523 135.372 60.6415 135.81 61.6962 136.615C62.7509 137.42 63.5129 138.548 63.8659 139.827L70.6092 164.593Z" fill="white"/>
<path d="M13.5866 0.503418H22.403C23.4244 0.503226 24.4299 0.755474 25.3303 1.23772C26.2306 1.71998 26.9978 2.41728 27.5636 3.2676L28.8454 5.21813C29.3654 5.99826 30.0697 6.63823 30.8959 7.08146C31.7221 7.52469 32.6448 7.75754 33.5824 7.7594H56.3311C57.3096 7.7594 58.248 8.14809 58.9399 8.83996C59.6317 9.53184 60.0204 10.4702 60.0204 11.4487V43.9501C60.0204 44.7512 59.7022 45.5195 59.1357 46.086C58.5693 46.6524 57.801 46.9706 56.9999 46.9706H11.7587C10.9576 46.9706 10.1893 46.6524 9.62285 46.086C9.05639 45.5195 8.73816 44.7512 8.73816 43.9501V7.7594L9.19514 4.34875C9.34253 3.28691 9.86758 2.31373 10.6741 1.60751C11.4806 0.901285 12.5146 0.509318 13.5866 0.503418Z" fill="#407BFF"/>
<path opacity="0.6" d="M13.5866 0.503418H22.403C23.4244 0.503226 24.4299 0.755474 25.3303 1.23772C26.2306 1.71998 26.9978 2.41728 27.5636 3.2676L28.8454 5.21813C29.3654 5.99826 30.0697 6.63823 30.8959 7.08146C31.7221 7.52469 32.6448 7.75754 33.5824 7.7594H56.3311C57.3096 7.7594 58.248 8.14809 58.9399 8.83996C59.6317 9.53184 60.0204 10.4702 60.0204 11.4487V43.9501C60.0204 44.7512 59.7022 45.5195 59.1357 46.086C58.5693 46.6524 57.801 46.9706 56.9999 46.9706H11.7587C10.9576 46.9706 10.1893 46.6524 9.62285 46.086C9.05639 45.5195 8.73816 44.7512 8.73816 43.9501V7.7594L9.19514 4.34875C9.34253 3.28691 9.86758 2.31373 10.6741 1.60751C11.4806 0.901285 12.5146 0.509318 13.5866 0.503418Z" fill="white"/>
<path d="M50.8032 7.75928H46.2445V39.3356H50.8032V7.75928Z" fill="#263238"/>
<path opacity="0.5" d="M50.8032 7.75928H46.2445V39.3356H50.8032V7.75928Z" fill="white"/>
<path d="M48.6625 9.26318H45.1627V11.8602H48.6625V9.26318Z" fill="#263238"/>
<path d="M48.6625 14.9253H45.1627V17.5223H48.6625V14.9253Z" fill="#263238"/>
<path d="M48.6625 20.5879H45.1627V23.1849H48.6625V20.5879Z" fill="#263238"/>
<path d="M48.6625 26.25H45.1627V28.847H48.6625V26.25Z" fill="#263238"/>
<path d="M48.6625 31.9121H45.1627V34.5091H48.6625V31.9121Z" fill="#263238"/>
<path opacity="0.7" d="M48.6625 9.26318H45.1627V11.8602H48.6625V9.26318Z" fill="white"/>
<path opacity="0.7" d="M48.6625 14.9253H45.1627V17.5223H48.6625V14.9253Z" fill="white"/>
<path opacity="0.7" d="M48.6625 20.5879H45.1627V23.1849H48.6625V20.5879Z" fill="white"/>
<path opacity="0.7" d="M48.6625 26.25H45.1627V28.847H48.6625V26.25Z" fill="white"/>
<path opacity="0.7" d="M48.6625 31.9121H45.1627V34.5091H48.6625V31.9121Z" fill="white"/>
<path d="M52.0508 11.8604H48.551V14.4573H52.0508V11.8604Z" fill="#263238"/>
<path d="M52.0508 17.5225H48.551V20.1195H52.0508V17.5225Z" fill="#263238"/>
<path d="M52.0508 23.1851H48.551V25.7821H52.0508V23.1851Z" fill="#263238"/>
<path d="M52.0508 28.8472H48.551V31.4442H52.0508V28.8472Z" fill="#263238"/>
<path d="M52.0508 34.5093H48.551V37.1063H52.0508V34.5093Z" fill="#263238"/>
<g opacity="0.8">
<path d="M52.0505 11.8608H48.5507V14.4578H52.0505V11.8608Z" fill="white"/>
<path d="M52.0505 17.5229H48.5507V20.1199H52.0505V17.5229Z" fill="white"/>
<path d="M52.0505 23.1851H48.5507V25.7821H52.0505V23.1851Z" fill="white"/>
<path d="M52.0505 28.8477H48.5507V31.4447H52.0505V28.8477Z" fill="white"/>
<path d="M52.0505 34.5098H48.5507V37.1068H52.0505V34.5098Z" fill="white"/>
</g>
<path d="M43.6476 37.1177V47.4722H53.6789V37.1177H43.6476ZM52.0627 45.5886H45.3752V38.9902H52.0627V45.5886Z" fill="#263238"/>
<path opacity="0.7" d="M43.6476 37.1177V47.4722H53.6789V37.1177H43.6476ZM52.0627 45.5886H45.3752V38.9902H52.0627V45.5886Z" fill="white"/>
<path d="M46.4672 60.2231H0V70.5777L10.3434 80.9211H56.7995V70.5665L46.4672 60.2231Z" fill="#407BFF"/>
<path opacity="0.3" d="M46.4672 60.2231H0V70.5777L10.3434 80.9211H56.7995V70.5665L46.4672 60.2231Z" fill="white"/>
<path d="M56.811 80.9106H10.3438V91.2652H56.811V80.9106Z" fill="#407BFF"/>
<path opacity="0.3" d="M56.811 80.9106H10.3438V91.2652H56.811V80.9106Z" fill="white"/>
<path d="M56.811 91.2642H10.3438V101.619H56.811V91.2642Z" fill="#407BFF"/>
<path opacity="0.6" d="M56.811 91.2642H10.3438V101.619H56.811V91.2642Z" fill="white"/>
<path d="M56.811 70.5659H10.3438V80.9205H56.811V70.5659Z" fill="#407BFF"/>
<path d="M27.8644 101.619H38.2969V70.5665L27.9535 60.2231H17.521L27.8644 70.5665V101.619Z" fill="#407BFF"/>
<path opacity="0.2" d="M27.8644 101.619H38.2969V70.5665L27.9535 60.2231H17.521L27.8644 70.5665V101.619Z" fill="black"/>
<path d="M25.0891 77.9673V94.218H40.8271V77.9673H25.0891ZM38.297 91.2643H27.8533V80.9098H38.2859L38.297 91.2643Z" fill="#263238"/>
<path opacity="0.5" d="M25.0891 77.9673V94.218H40.8271V77.9673H25.0891ZM38.297 91.2643H27.8533V80.9098H38.2859L38.297 91.2643Z" fill="white"/>
<path d="M0 60.2231V70.5777L10.3434 80.9211V70.5665L0 60.2231Z" fill="#263238"/>
<path opacity="0.5" d="M0 60.2231V70.5777L10.3434 80.9211V70.5665L0 60.2231Z" fill="white"/>
<path d="M0 70.5659V80.9316L10.3434 91.2639V80.9093L0 70.5659Z" fill="#263238"/>
<path opacity="0.6" d="M0 70.5659V80.9316L10.3434 91.2639V80.9093L0 70.5659Z" fill="white"/>
<path d="M0 80.9214V91.2759L10.3434 101.619V91.2648L0 80.9214Z" fill="#263238"/>
<path opacity="0.8" d="M0 80.9214V91.2759L10.3434 101.619V91.2648L0 80.9214Z" fill="white"/>
<path d="M413.436 107.858H362.766V176.049H413.436V107.858Z" fill="#407BFF"/>
<path opacity="0.7" d="M413.436 107.858H362.766V176.049H413.436V107.858Z" fill="white"/>
<path opacity="0.7" d="M410.125 111.169H366.076V128.924H410.125V111.169Z" fill="white"/>
<path opacity="0.7" d="M410.125 133.071H366.076V150.827H410.125V133.071Z" fill="white"/>
<path d="M410.125 120.743L406.012 115.738L400.941 121.924L395.869 114.635L390.486 120.018L385.203 117.042L380.388 125.023L375.584 117.042L370.133 120.13L366.076 117.834V119.728L370.133 122.024L375.004 119.271L380.388 128.233L385.782 119.271L390.764 122.08L395.635 117.198L400.829 124.666L406.012 118.346L410.125 123.351V120.743Z" fill="#407BFF"/>
<path opacity="0.5" d="M410.125 120.743L406.012 115.738L400.941 121.924L395.869 114.635L390.486 120.018L385.203 117.042L380.388 125.023L375.584 117.042L370.133 120.13L366.076 117.834V119.728L370.133 122.024L375.004 119.271L380.388 128.233L385.782 119.271L390.764 122.08L395.635 117.198L400.829 124.666L406.012 118.346L410.125 123.351V120.743Z" fill="white"/>
<path d="M410.125 138.466L405.979 140.806L400.528 137.719L395.724 145.699L390.92 137.73L385.637 140.695L380.254 135.312L375.182 142.601L370.1 136.415L366.076 141.33V143.938L370.1 139.023L375.283 145.343L380.477 137.875L385.348 142.757L390.33 139.959L395.724 148.91L401.119 139.959L405.979 142.701L410.125 140.372V138.466Z" fill="#407BFF"/>
<path opacity="0.5" d="M410.125 138.466L405.979 140.806L400.528 137.719L395.724 145.699L390.92 137.73L385.637 140.695L380.254 135.312L375.182 142.601L370.1 136.415L366.076 141.33V143.938L370.1 139.023L375.283 145.343L380.477 137.875L385.348 142.757L390.33 139.959L395.724 148.91L401.119 139.959L405.979 142.701L410.125 140.372V138.466Z" fill="white"/>
<path d="M384.267 155.809H409.501C409.72 155.809 409.929 155.722 410.084 155.568C410.239 155.413 410.326 155.203 410.326 154.984C410.326 154.766 410.239 154.556 410.084 154.401C409.929 154.247 409.72 154.16 409.501 154.16H384.267C384.048 154.16 383.838 154.247 383.683 154.401C383.529 154.556 383.442 154.766 383.442 154.984C383.442 155.203 383.529 155.413 383.683 155.568C383.838 155.722 384.048 155.809 384.267 155.809Z" fill="#263238"/>
<path d="M384.266 160.368H406.19C406.394 160.345 406.582 160.247 406.718 160.094C406.854 159.941 406.93 159.743 406.93 159.538C406.93 159.333 406.854 159.135 406.718 158.982C406.582 158.829 406.394 158.731 406.19 158.708H384.266C384.063 158.731 383.875 158.829 383.738 158.982C383.602 159.135 383.527 159.333 383.527 159.538C383.527 159.743 383.602 159.941 383.738 160.094C383.875 160.247 384.063 160.345 384.266 160.368Z" fill="#263238"/>
<path d="M384.266 164.826H406.19C406.394 164.803 406.582 164.705 406.718 164.552C406.854 164.399 406.93 164.201 406.93 163.996C406.93 163.791 406.854 163.593 406.718 163.44C406.582 163.287 406.394 163.189 406.19 163.166H384.266C384.063 163.189 383.875 163.287 383.738 163.44C383.602 163.593 383.527 163.791 383.527 163.996C383.527 164.201 383.602 164.399 383.738 164.552C383.875 164.705 384.063 164.803 384.266 164.826Z" fill="#263238"/>
<path d="M384.267 169.284H407.294C407.513 169.284 407.723 169.197 407.877 169.043C408.032 168.888 408.119 168.678 408.119 168.46C408.119 168.241 408.032 168.031 407.877 167.876C407.723 167.722 407.513 167.635 407.294 167.635H384.267C384.048 167.635 383.838 167.722 383.683 167.876C383.529 168.031 383.442 168.241 383.442 168.46C383.442 168.678 383.529 168.888 383.683 169.043C383.838 169.197 384.048 169.284 384.267 169.284Z" fill="#263238"/>
<g opacity="0.4">
<path d="M384.266 155.809H409.501C409.719 155.809 409.929 155.722 410.084 155.567C410.239 155.413 410.325 155.203 410.325 154.984C410.325 154.765 410.239 154.555 410.084 154.401C409.929 154.246 409.719 154.159 409.501 154.159H384.266C384.048 154.159 383.838 154.246 383.683 154.401C383.528 154.555 383.442 154.765 383.442 154.984C383.442 155.203 383.528 155.413 383.683 155.567C383.838 155.722 384.048 155.809 384.266 155.809Z" fill="white"/>
<path d="M384.266 160.367H406.19C406.394 160.344 406.581 160.246 406.718 160.093C406.854 159.94 406.93 159.742 406.93 159.537C406.93 159.332 406.854 159.134 406.718 158.981C406.581 158.828 406.394 158.73 406.19 158.707H384.266C384.062 158.73 383.874 158.828 383.738 158.981C383.602 159.134 383.526 159.332 383.526 159.537C383.526 159.742 383.602 159.94 383.738 160.093C383.874 160.246 384.062 160.344 384.266 160.367Z" fill="white"/>
<path d="M384.266 164.826H406.19C406.394 164.802 406.581 164.704 406.718 164.551C406.854 164.398 406.93 164.2 406.93 163.995C406.93 163.79 406.854 163.592 406.718 163.439C406.581 163.286 406.394 163.189 406.19 163.165H384.266C384.062 163.189 383.874 163.286 383.738 163.439C383.602 163.592 383.526 163.79 383.526 163.995C383.526 164.2 383.602 164.398 383.738 164.551C383.874 164.704 384.062 164.802 384.266 164.826Z" fill="white"/>
<path d="M384.266 169.284H407.294C407.512 169.284 407.722 169.197 407.877 169.042C408.032 168.888 408.119 168.678 408.119 168.459C408.119 168.24 408.032 168.031 407.877 167.876C407.722 167.721 407.512 167.634 407.294 167.634H384.266C384.048 167.634 383.838 167.721 383.683 167.876C383.528 168.031 383.442 168.24 383.442 168.459C383.442 168.678 383.528 168.888 383.683 169.042C383.838 169.197 384.048 169.284 384.266 169.284Z" fill="white"/>
</g>
<path d="M410.838 2.96484H364.772V64.9583H410.838V2.96484Z" fill="#407BFF"/>
<path opacity="0.6" d="M410.838 2.96484H364.772V64.9583H410.838V2.96484Z" fill="white"/>
<path opacity="0.7" d="M407.829 5.97314H367.782V22.1124H407.829V5.97314Z" fill="white"/>
<path d="M384.444 26.9612H407.394C407.577 26.9388 407.747 26.8499 407.869 26.7113C407.992 26.5727 408.06 26.394 408.06 26.2089C408.06 26.0238 407.992 25.845 407.869 25.7064C407.747 25.5678 407.577 25.479 407.394 25.4565H384.444C384.26 25.479 384.091 25.5678 383.969 25.7064C383.846 25.845 383.778 26.0238 383.778 26.2089C383.778 26.394 383.846 26.5727 383.969 26.7113C384.091 26.8499 384.26 26.9388 384.444 26.9612Z" fill="#263238"/>
<path d="M384.444 31.0736H404.384C404.568 31.0511 404.737 30.9622 404.86 30.8236C404.983 30.685 405.05 30.5063 405.05 30.3212C405.05 30.1361 404.983 29.9574 404.86 29.8188C404.737 29.6802 404.568 29.5913 404.384 29.5688H384.444C384.26 29.5913 384.091 29.6802 383.969 29.8188C383.846 29.9574 383.778 30.1361 383.778 30.3212C383.778 30.5063 383.846 30.685 383.969 30.8236C384.091 30.9622 384.26 31.0511 384.444 31.0736Z" fill="#263238"/>
<path d="M384.444 35.1531H404.384C404.568 35.1307 404.737 35.0418 404.86 34.9032C404.983 34.7646 405.05 34.5859 405.05 34.4008C405.05 34.2157 404.983 34.0369 404.86 33.8983C404.737 33.7597 404.568 33.6708 404.384 33.6484H384.444C384.26 33.6708 384.091 33.7597 383.969 33.8983C383.846 34.0369 383.778 34.2157 383.778 34.4008C383.778 34.5859 383.846 34.7646 383.969 34.9032C384.091 35.0418 384.26 35.1307 384.444 35.1531Z" fill="#263238"/>
<path d="M384.444 39.2566H405.387C405.571 39.2342 405.74 39.1454 405.863 39.0068C405.986 38.8682 406.054 38.6894 406.054 38.5043C406.054 38.3192 405.986 38.1404 405.863 38.0018C405.74 37.8632 405.571 37.7744 405.387 37.752H384.444C384.26 37.7744 384.091 37.8632 383.969 38.0018C383.846 38.1404 383.778 38.3192 383.778 38.5043C383.778 38.6894 383.846 38.8682 383.969 39.0068C384.091 39.1454 384.26 39.2342 384.444 39.2566Z" fill="#263238"/>
<path d="M384.444 43.3338H401.375C401.559 43.3114 401.728 43.2225 401.851 43.0839C401.973 42.9453 402.041 42.7666 402.041 42.5815C402.041 42.3963 401.973 42.2176 401.851 42.079C401.728 41.9404 401.559 41.8515 401.375 41.8291H384.444C384.26 41.8515 384.091 41.9404 383.969 42.079C383.846 42.2176 383.778 42.3963 383.778 42.5815C383.778 42.7666 383.846 42.9453 383.969 43.0839C384.091 43.2225 384.26 43.3114 384.444 43.3338Z" fill="#263238"/>
<path d="M384.444 47.4486H407.394C407.577 47.4261 407.747 47.3372 407.869 47.1986C407.992 47.06 408.06 46.8813 408.06 46.6962C408.06 46.5111 407.992 46.3324 407.869 46.1938C407.747 46.0552 407.577 45.9663 407.394 45.9438H384.444C384.26 45.9663 384.091 46.0552 383.969 46.1938C383.846 46.3324 383.778 46.5111 383.778 46.6962C383.778 46.8813 383.846 47.06 383.969 47.1986C384.091 47.3372 384.26 47.4261 384.444 47.4486Z" fill="#263238"/>
<path d="M384.444 51.5389H404.384C404.568 51.5165 404.737 51.4276 404.86 51.289C404.983 51.1504 405.05 50.9717 405.05 50.7865C405.05 50.6014 404.983 50.4227 404.86 50.2841C404.737 50.1455 404.568 50.0566 404.384 50.0342H384.444C384.26 50.0566 384.091 50.1455 383.969 50.2841C383.846 50.4227 383.778 50.6014 383.778 50.7865C383.778 50.9717 383.846 51.1504 383.969 51.289C384.091 51.4276 384.26 51.5165 384.444 51.5389Z" fill="#263238"/>
<path d="M384.444 55.5945H404.384C404.568 55.5721 404.737 55.4832 404.86 55.3446C404.983 55.206 405.05 55.0273 405.05 54.8422C405.05 54.6571 404.983 54.4783 404.86 54.3397C404.737 54.2011 404.568 54.1123 404.384 54.0898H384.444C384.26 54.1123 384.091 54.2011 383.969 54.3397C383.846 54.4783 383.778 54.6571 383.778 54.8422C383.778 55.0273 383.846 55.206 383.969 55.3446C384.091 55.4832 384.26 55.5721 384.444 55.5945Z" fill="#263238"/>
<path d="M384.444 59.7308H405.387C405.571 59.7084 405.74 59.6195 405.863 59.4809C405.986 59.3423 406.054 59.1636 406.054 58.9784C406.054 58.7933 405.986 58.6146 405.863 58.476C405.74 58.3374 405.571 58.2485 405.387 58.2261H384.444C384.26 58.2485 384.091 58.3374 383.969 58.476C383.846 58.6146 383.778 58.7933 383.778 58.9784C383.778 59.1636 383.846 59.3423 383.969 59.4809C384.091 59.6195 384.26 59.7084 384.444 59.7308Z" fill="#263238"/>
<g opacity="0.4">
<path d="M384.444 26.9607H407.394C407.578 26.9383 407.747 26.8495 407.87 26.7109C407.992 26.5723 408.06 26.3935 408.06 26.2084C408.06 26.0233 407.992 25.8445 407.87 25.7059C407.747 25.5673 407.578 25.4785 407.394 25.4561H384.444C384.261 25.4785 384.092 25.5673 383.969 25.7059C383.846 25.8445 383.778 26.0233 383.778 26.2084C383.778 26.3935 383.846 26.5723 383.969 26.7109C384.092 26.8495 384.261 26.9383 384.444 26.9607Z" fill="white"/>
</g>
<g opacity="0.4">
<path d="M384.444 31.0745H404.385C404.568 31.0521 404.737 30.9632 404.86 30.8246C404.983 30.686 405.051 30.5073 405.051 30.3222C405.051 30.1371 404.983 29.9583 404.86 29.8197C404.737 29.6811 404.568 29.5922 404.385 29.5698H384.444C384.261 29.5922 384.092 29.6811 383.969 29.8197C383.846 29.9583 383.778 30.1371 383.778 30.3222C383.778 30.5073 383.846 30.686 383.969 30.8246C384.092 30.9632 384.261 31.0521 384.444 31.0745Z" fill="white"/>
</g>
<g opacity="0.4">
<path d="M384.444 35.1531H404.385C404.568 35.1307 404.737 35.0418 404.86 34.9032C404.983 34.7646 405.051 34.5859 405.051 34.4008C405.051 34.2157 404.983 34.0369 404.86 33.8983C404.737 33.7597 404.568 33.6708 404.385 33.6484H384.444C384.261 33.6708 384.092 33.7597 383.969 33.8983C383.846 34.0369 383.778 34.2157 383.778 34.4008C383.778 34.5859 383.846 34.7646 383.969 34.9032C384.092 35.0418 384.261 35.1307 384.444 35.1531Z" fill="white"/>
</g>
<g opacity="0.4">
<path d="M384.444 39.2562H405.388C405.571 39.2337 405.741 39.1449 405.863 39.0063C405.986 38.8677 406.054 38.6889 406.054 38.5038C406.054 38.3187 405.986 38.14 405.863 38.0014C405.741 37.8628 405.571 37.7739 405.388 37.7515H384.444C384.261 37.7739 384.092 37.8628 383.969 38.0014C383.846 38.14 383.778 38.3187 383.778 38.5038C383.778 38.6889 383.846 38.8677 383.969 39.0063C384.092 39.1449 384.261 39.2337 384.444 39.2562Z" fill="white"/>
</g>
<g opacity="0.4">
<path d="M384.444 43.3338H401.375C401.559 43.3114 401.728 43.2225 401.851 43.0839C401.974 42.9453 402.041 42.7666 402.041 42.5815C402.041 42.3963 401.974 42.2176 401.851 42.079C401.728 41.9404 401.559 41.8515 401.375 41.8291H384.444C384.261 41.8515 384.092 41.9404 383.969 42.079C383.846 42.2176 383.778 42.3963 383.778 42.5815C383.778 42.7666 383.846 42.9453 383.969 43.0839C384.092 43.2225 384.261 43.3114 384.444 43.3338Z" fill="white"/>
</g>
<g opacity="0.4">
<path d="M384.444 47.4481H407.394C407.578 47.4257 407.747 47.3368 407.87 47.1982C407.992 47.0596 408.06 46.8808 408.06 46.6957C408.06 46.5106 407.992 46.3319 407.87 46.1933C407.747 46.0547 407.578 45.9658 407.394 45.9434H384.444C384.261 45.9658 384.092 46.0547 383.969 46.1933C383.846 46.3319 383.778 46.5106 383.778 46.6957C383.778 46.8808 383.846 47.0596 383.969 47.1982C384.092 47.3368 384.261 47.4257 384.444 47.4481Z" fill="white"/>
</g>
<g opacity="0.4">
<path d="M384.444 51.5384H404.385C404.568 51.516 404.737 51.4271 404.86 51.2885C404.983 51.1499 405.051 50.9712 405.051 50.786C405.051 50.6009 404.983 50.4222 404.86 50.2836C404.737 50.145 404.568 50.0561 404.385 50.0337H384.444C384.261 50.0561 384.092 50.145 383.969 50.2836C383.846 50.4222 383.778 50.6009 383.778 50.786C383.778 50.9712 383.846 51.1499 383.969 51.2885C384.092 51.4271 384.261 51.516 384.444 51.5384Z" fill="white"/>
</g>
<g opacity="0.4">
<path d="M384.444 55.595H404.385C404.568 55.5726 404.737 55.4837 404.86 55.3451C404.983 55.2065 405.051 55.0278 405.051 54.8427C405.051 54.6576 404.983 54.4788 404.86 54.3402C404.737 54.2016 404.568 54.1127 404.385 54.0903H384.444C384.261 54.1127 384.092 54.2016 383.969 54.3402C383.846 54.4788 383.778 54.6576 383.778 54.8427C383.778 55.0278 383.846 55.2065 383.969 55.3451C384.092 55.4837 384.261 55.5726 384.444 55.595Z" fill="white"/>
</g>
<g opacity="0.4">
<path d="M384.444 59.7308H405.388C405.571 59.7084 405.741 59.6195 405.863 59.4809C405.986 59.3423 406.054 59.1636 406.054 58.9784C406.054 58.7933 405.986 58.6146 405.863 58.476C405.741 58.3374 405.571 58.2485 405.388 58.2261H384.444C384.261 58.2485 384.092 58.3374 383.969 58.476C383.846 58.6146 383.778 58.7933 383.778 58.9784C383.778 59.1636 383.846 59.3423 383.969 59.4809C384.092 59.6195 384.261 59.7084 384.444 59.7308Z" fill="white"/>
</g>
<path d="M379.073 26.2144H367.782V37.5052H379.073V26.2144Z" fill="#407BFF"/>
<path opacity="0.3" d="M379.073 26.2144H367.782V37.5052H379.073V26.2144Z" fill="white"/>
<path d="M380.164 14.5459H377.11V20.6538H380.164V14.5459Z" fill="#407BFF"/>
<path d="M386.283 11.481H383.229V20.6429H386.283V11.481Z" fill="#407BFF"/>
<path d="M392.392 13.0176H389.338V20.6525H392.392V13.0176Z" fill="#407BFF"/>
<path d="M398.499 8.42627H395.445V20.6533H398.499V8.42627Z" fill="#407BFF"/>
<path d="M388.279 54.4712H342.213V116.465H388.279V54.4712Z" fill="#407BFF"/>
<path opacity="0.8" d="M388.279 54.4712H342.213V116.465H388.279V54.4712Z" fill="white"/>
<path d="M361.886 61.1673H384.835C385.019 61.1449 385.188 61.056 385.311 60.9174C385.433 60.7788 385.501 60.6001 385.501 60.4149C385.501 60.2298 385.433 60.0511 385.311 59.9125C385.188 59.7739 385.019 59.685 384.835 59.6626H361.886C361.702 59.685 361.533 59.7739 361.41 59.9125C361.287 60.0511 361.219 60.2298 361.219 60.4149C361.219 60.6001 361.287 60.7788 361.41 60.9174C361.533 61.056 361.702 61.1449 361.886 61.1673Z" fill="#263238"/>
<path d="M361.886 65.2147H381.826C382.009 65.1923 382.179 65.1034 382.301 64.9648C382.424 64.8262 382.492 64.6474 382.492 64.4623C382.492 64.2772 382.424 64.0985 382.301 63.9599C382.179 63.8213 382.009 63.7324 381.826 63.71H361.886C361.702 63.7324 361.533 63.8213 361.41 63.9599C361.287 64.0985 361.219 64.2772 361.219 64.4623C361.219 64.6474 361.287 64.8262 361.41 64.9648C361.533 65.1034 361.702 65.1923 361.886 65.2147Z" fill="#263238"/>
<path d="M361.886 69.305H381.826C382.009 69.2826 382.179 69.1937 382.301 69.0551C382.424 68.9165 382.492 68.7378 382.492 68.5526C382.492 68.3675 382.424 68.1888 382.301 68.0502C382.179 67.9116 382.009 67.8227 381.826 67.8003H361.886C361.702 67.8227 361.533 67.9116 361.41 68.0502C361.287 68.1888 361.219 68.3675 361.219 68.5526C361.219 68.7378 361.287 68.9165 361.41 69.0551C361.533 69.1937 361.702 69.2826 361.886 69.305Z" fill="#263238"/>
<path d="M361.886 73.428H382.829C383.013 73.4056 383.182 73.3167 383.304 73.1781C383.427 73.0395 383.495 72.8608 383.495 72.6757C383.495 72.4906 383.427 72.3118 383.304 72.1732C383.182 72.0346 383.013 71.9457 382.829 71.9233H361.886C361.702 71.9457 361.533 72.0346 361.41 72.1732C361.287 72.3118 361.219 72.4906 361.219 72.6757C361.219 72.8608 361.287 73.0395 361.41 73.1781C361.533 73.3167 361.702 73.4056 361.886 73.428Z" fill="#263238"/>
<path d="M361.886 77.4969H378.816C379 77.4745 379.169 77.3856 379.292 77.247C379.415 77.1084 379.482 76.9297 379.482 76.7445C379.482 76.5594 379.415 76.3807 379.292 76.2421C379.169 76.1035 379 76.0146 378.816 75.9922H361.886C361.702 76.0146 361.533 76.1035 361.41 76.2421C361.287 76.3807 361.219 76.5594 361.219 76.7445C361.219 76.9297 361.287 77.1084 361.41 77.247C361.533 77.3856 361.702 77.4745 361.886 77.4969Z" fill="#263238"/>
<path d="M361.886 81.598H384.835C385.019 81.5756 385.188 81.4867 385.311 81.3481C385.433 81.2095 385.501 81.0307 385.501 80.8456C385.501 80.6605 385.433 80.4818 385.311 80.3432C385.188 80.2046 385.019 80.1157 384.835 80.0933H361.886C361.702 80.1157 361.533 80.2046 361.41 80.3432C361.287 80.4818 361.219 80.6605 361.219 80.8456C361.219 81.0307 361.287 81.2095 361.41 81.3481C361.533 81.4867 361.702 81.5756 361.886 81.598Z" fill="#263238"/>
<path d="M361.886 85.6888H381.826C382.009 85.6664 382.179 85.5775 382.301 85.4389C382.424 85.3003 382.492 85.1216 382.492 84.9364C382.492 84.7513 382.424 84.5726 382.301 84.434C382.179 84.2954 382.009 84.2065 381.826 84.1841H361.886C361.702 84.2065 361.533 84.2954 361.41 84.434C361.287 84.5726 361.219 84.7513 361.219 84.9364C361.219 85.1216 361.287 85.3003 361.41 85.4389C361.533 85.5775 361.702 85.6664 361.886 85.6888Z" fill="#263238"/>
<path d="M361.886 89.7918H381.826C382.009 89.7694 382.179 89.6805 382.301 89.5419C382.424 89.4033 382.492 89.2246 382.492 89.0395C382.492 88.8543 382.424 88.6756 382.301 88.537C382.179 88.3984 382.009 88.3095 381.826 88.2871H361.886C361.702 88.3095 361.533 88.3984 361.41 88.537C361.287 88.6756 361.219 88.8543 361.219 89.0395C361.219 89.2246 361.287 89.4033 361.41 89.5419C361.533 89.6805 361.702 89.7694 361.886 89.7918Z" fill="#263238"/>
<path d="M361.886 97.949H378.816C379 97.9266 379.169 97.8377 379.292 97.6991C379.415 97.5605 379.482 97.3818 379.482 97.1967C379.482 97.0116 379.415 96.8328 379.292 96.6942C379.169 96.5556 379 96.4667 378.816 96.4443H361.886C361.702 96.4667 361.533 96.5556 361.41 96.6942C361.287 96.8328 361.219 97.0116 361.219 97.1967C361.219 97.3818 361.287 97.5605 361.41 97.6991C361.533 97.8377 361.702 97.9266 361.886 97.949Z" fill="#263238"/>
<path d="M361.886 102.085H384.835C385.019 102.063 385.188 101.974 385.311 101.835C385.433 101.697 385.501 101.518 385.501 101.333C385.501 101.148 385.433 100.969 385.311 100.83C385.188 100.692 385.019 100.603 384.835 100.581H361.886C361.702 100.603 361.533 100.692 361.41 100.83C361.287 100.969 361.219 101.148 361.219 101.333C361.219 101.518 361.287 101.697 361.41 101.835C361.533 101.974 361.702 102.063 361.886 102.085Z" fill="#263238"/>
<path d="M361.886 106.176H381.826C382.009 106.153 382.179 106.064 382.301 105.926C382.424 105.787 382.492 105.608 382.492 105.423C382.492 105.238 382.424 105.059 382.301 104.921C382.179 104.782 382.009 104.693 381.826 104.671H361.886C361.702 104.693 361.533 104.782 361.41 104.921C361.287 105.059 361.219 105.238 361.219 105.423C361.219 105.608 361.287 105.787 361.41 105.926C361.533 106.064 361.702 106.153 361.886 106.176Z" fill="#263238"/>
<path d="M361.886 110.277H381.826C382.009 110.255 382.179 110.166 382.301 110.027C382.424 109.889 382.492 109.71 382.492 109.525C382.492 109.34 382.424 109.161 382.301 109.022C382.179 108.884 382.009 108.795 381.826 108.772H361.886C361.702 108.795 361.533 108.884 361.41 109.022C361.287 109.161 361.219 109.34 361.219 109.525C361.219 109.71 361.287 109.889 361.41 110.027C361.533 110.166 361.702 110.255 361.886 110.277Z" fill="#263238"/>
<path d="M361.886 93.8826H382.829C383.013 93.8602 383.182 93.7713 383.304 93.6327C383.427 93.4941 383.495 93.3154 383.495 93.1303C383.495 92.9452 383.427 92.7664 383.304 92.6278C383.182 92.4892 383.013 92.4003 382.829 92.3779H361.886C361.702 92.4003 361.533 92.4892 361.41 92.6278C361.287 92.7664 361.219 92.9452 361.219 93.1303C361.219 93.3154 361.287 93.4941 361.41 93.6327C361.533 93.7713 361.702 93.8602 361.886 93.8826Z" fill="#263238"/>
<g opacity="0.4">
<path d="M361.886 61.1673H384.835C385.019 61.1449 385.188 61.056 385.311 60.9174C385.433 60.7788 385.501 60.6001 385.501 60.4149C385.501 60.2298 385.433 60.0511 385.311 59.9125C385.188 59.7739 385.019 59.685 384.835 59.6626H361.886C361.702 59.685 361.533 59.7739 361.41 59.9125C361.287 60.0511 361.219 60.2298 361.219 60.4149C361.219 60.6001 361.287 60.7788 361.41 60.9174C361.533 61.056 361.702 61.1449 361.886 61.1673Z" fill="white"/>
<path d="M361.886 65.2142H381.826C382.009 65.1918 382.179 65.1029 382.301 64.9643C382.424 64.8257 382.492 64.6469 382.492 64.4618C382.492 64.2767 382.424 64.098 382.301 63.9594C382.179 63.8208 382.009 63.7319 381.826 63.7095H361.886C361.702 63.7319 361.533 63.8208 361.41 63.9594C361.287 64.098 361.219 64.2767 361.219 64.4618C361.219 64.6469 361.287 64.8257 361.41 64.9643C361.533 65.1029 361.702 65.1918 361.886 65.2142Z" fill="white"/>
<path d="M361.886 69.305H381.826C382.009 69.2826 382.179 69.1937 382.301 69.0551C382.424 68.9165 382.492 68.7378 382.492 68.5526C382.492 68.3675 382.424 68.1888 382.301 68.0502C382.179 67.9116 382.009 67.8227 381.826 67.8003H361.886C361.702 67.8227 361.533 67.9116 361.41 68.0502C361.287 68.1888 361.219 68.3675 361.219 68.5526C361.219 68.7378 361.287 68.9165 361.41 69.0551C361.533 69.1937 361.702 69.2826 361.886 69.305Z" fill="white"/>
<path d="M361.886 73.4276H382.829C383.013 73.4051 383.182 73.3162 383.304 73.1776C383.427 73.039 383.495 72.8603 383.495 72.6752C383.495 72.4901 383.427 72.3114 383.304 72.1728C383.182 72.0342 383.013 71.9453 382.829 71.9229H361.886C361.702 71.9453 361.533 72.0342 361.41 72.1728C361.287 72.3114 361.219 72.4901 361.219 72.6752C361.219 72.8603 361.287 73.039 361.41 73.1776C361.533 73.3162 361.702 73.4051 361.886 73.4276Z" fill="white"/>
<path d="M361.886 77.4969H378.816C379 77.4745 379.169 77.3856 379.292 77.247C379.415 77.1084 379.482 76.9297 379.482 76.7445C379.482 76.5594 379.415 76.3807 379.292 76.2421C379.169 76.1035 379 76.0146 378.816 75.9922H361.886C361.702 76.0146 361.533 76.1035 361.41 76.2421C361.287 76.3807 361.219 76.5594 361.219 76.7445C361.219 76.9297 361.287 77.1084 361.41 77.247C361.533 77.3856 361.702 77.4745 361.886 77.4969Z" fill="white"/>
<path d="M361.886 81.598H384.835C385.019 81.5756 385.188 81.4867 385.311 81.3481C385.433 81.2095 385.501 81.0307 385.501 80.8456C385.501 80.6605 385.433 80.4818 385.311 80.3432C385.188 80.2046 385.019 80.1157 384.835 80.0933H361.886C361.702 80.1157 361.533 80.2046 361.41 80.3432C361.287 80.4818 361.219 80.6605 361.219 80.8456C361.219 81.0307 361.287 81.2095 361.41 81.3481C361.533 81.4867 361.702 81.5756 361.886 81.598Z" fill="white"/>
<path d="M361.886 85.6888H381.826C382.009 85.6664 382.179 85.5775 382.301 85.4389C382.424 85.3003 382.492 85.1216 382.492 84.9364C382.492 84.7513 382.424 84.5726 382.301 84.434C382.179 84.2954 382.009 84.2065 381.826 84.1841H361.886C361.702 84.2065 361.533 84.2954 361.41 84.434C361.287 84.5726 361.219 84.7513 361.219 84.9364C361.219 85.1216 361.287 85.3003 361.41 85.4389C361.533 85.5775 361.702 85.6664 361.886 85.6888Z" fill="white"/>
<path d="M361.886 89.7898H381.826C382.009 89.7674 382.179 89.6786 382.301 89.54C382.424 89.4014 382.492 89.2226 382.492 89.0375C382.492 88.8524 382.424 88.6736 382.301 88.535C382.179 88.3964 382.009 88.3076 381.826 88.2852H361.886C361.702 88.3076 361.533 88.3964 361.41 88.535C361.287 88.6736 361.219 88.8524 361.219 89.0375C361.219 89.2226 361.287 89.4014 361.41 89.54C361.533 89.6786 361.702 89.7674 361.886 89.7898Z" fill="white"/>
<path d="M361.886 97.949H378.816C379 97.9266 379.169 97.8377 379.292 97.6991C379.415 97.5605 379.482 97.3818 379.482 97.1967C379.482 97.0116 379.415 96.8328 379.292 96.6942C379.169 96.5556 379 96.4667 378.816 96.4443H361.886C361.702 96.4667 361.533 96.5556 361.41 96.6942C361.287 96.8328 361.219 97.0116 361.219 97.1967C361.219 97.3818 361.287 97.5605 361.41 97.6991C361.533 97.8377 361.702 97.9266 361.886 97.949Z" fill="white"/>
<path d="M361.886 102.085H384.835C385.019 102.063 385.188 101.974 385.311 101.835C385.433 101.697 385.501 101.518 385.501 101.333C385.501 101.148 385.433 100.969 385.311 100.83C385.188 100.692 385.019 100.603 384.835 100.581H361.886C361.702 100.603 361.533 100.692 361.41 100.83C361.287 100.969 361.219 101.148 361.219 101.333C361.219 101.518 361.287 101.697 361.41 101.835C361.533 101.974 361.702 102.063 361.886 102.085Z" fill="white"/>
<path d="M361.886 106.175H381.826C382.009 106.153 382.179 106.064 382.301 105.925C382.424 105.787 382.492 105.608 382.492 105.423C382.492 105.238 382.424 105.059 382.301 104.92C382.179 104.782 382.009 104.693 381.826 104.67H361.886C361.702 104.693 361.533 104.782 361.41 104.92C361.287 105.059 361.219 105.238 361.219 105.423C361.219 105.608 361.287 105.787 361.41 105.925C361.533 106.064 361.702 106.153 361.886 106.175Z" fill="white"/>
<path d="M361.886 110.277H381.826C382.009 110.255 382.179 110.166 382.301 110.027C382.424 109.889 382.492 109.71 382.492 109.525C382.492 109.34 382.424 109.161 382.301 109.022C382.179 108.884 382.009 108.795 381.826 108.772H361.886C361.702 108.795 361.533 108.884 361.41 109.022C361.287 109.161 361.219 109.34 361.219 109.525C361.219 109.71 361.287 109.889 361.41 110.027C361.533 110.166 361.702 110.255 361.886 110.277Z" fill="white"/>
<path d="M361.886 93.8802H382.829C383.013 93.8578 383.182 93.7689 383.304 93.6303C383.427 93.4917 383.495 93.313 383.495 93.1278C383.495 92.9427 383.427 92.764 383.304 92.6254C383.182 92.4868 383.013 92.3979 382.829 92.3755H361.886C361.702 92.3979 361.533 92.4868 361.41 92.6254C361.287 92.764 361.219 92.9427 361.219 93.1278C361.219 93.313 361.287 93.4917 361.41 93.6303C361.533 93.7689 361.702 93.8578 361.886 93.8802Z" fill="white"/>
</g>
<path d="M349.291 81.8666L347.474 80.0498C346.828 80.6901 346.316 81.4524 345.968 82.2925C345.62 83.1325 345.442 84.0335 345.446 84.9429H348.02C348.018 84.3716 348.13 83.8056 348.348 83.2776C348.566 82.7496 348.886 82.27 349.291 81.8666Z" fill="#407BFF"/>
<path d="M352.356 89.2903C351.205 89.2873 350.102 88.828 349.289 88.0131C348.477 87.1983 348.02 86.0943 348.02 84.9434H345.446C345.446 86.7761 346.174 88.5338 347.47 89.8298C348.766 91.1258 350.523 91.8538 352.356 91.8538V89.2903Z" fill="#407BFF"/>
<path opacity="0.3" d="M352.356 89.2903C351.205 89.2873 350.102 88.828 349.289 88.0131C348.477 87.1983 348.02 86.0943 348.02 84.9434H345.446C345.446 86.7761 346.174 88.5338 347.47 89.8298C348.766 91.1258 350.523 91.8538 352.356 91.8538V89.2903Z" fill="white"/>
<path d="M349.29 81.8663C349.691 81.4617 350.169 81.1409 350.695 80.9228C351.221 80.7046 351.786 80.5934 352.355 80.5957V78.021C351.448 78.021 350.55 78.2002 349.712 78.5483C348.874 78.8964 348.113 79.4066 347.473 80.0496L349.29 81.8663Z" fill="#407BFF"/>
<path opacity="0.5" d="M349.29 81.8663C349.691 81.4617 350.169 81.1409 350.695 80.9228C351.221 80.7046 351.786 80.5934 352.355 80.5957V78.021C351.448 78.021 350.55 78.2002 349.712 78.5483C348.874 78.8964 348.113 79.4066 347.473 80.0496L349.29 81.8663Z" fill="black"/>
<path d="M356.657 84.9438C356.657 86.0967 356.199 87.2023 355.384 88.0175C354.569 88.8327 353.463 89.2907 352.31 89.2907V91.8542C353.242 91.8916 354.172 91.7405 355.043 91.4097C355.915 91.079 356.711 90.5756 357.383 89.9297C358.056 89.2838 358.591 88.5088 358.956 87.651C359.321 86.7933 359.51 85.8705 359.51 84.9382C359.51 84.0059 359.321 83.0831 358.956 82.2254C358.591 81.3677 358.056 80.5926 357.383 79.9467C356.711 79.3008 355.915 78.7974 355.043 78.4667C354.172 78.136 353.242 77.9848 352.31 78.0222V80.5969C352.882 80.5954 353.448 80.7068 353.976 80.9248C354.504 81.1427 354.983 81.4628 355.387 81.8668C355.791 82.2707 356.111 82.7505 356.329 83.2785C356.547 83.8066 356.659 84.3725 356.657 84.9438Z" fill="#407BFF"/>
<path opacity="0.2" d="M355.432 88.0085L357.249 89.8364C357.893 89.195 358.404 88.4325 358.752 87.5927C359.1 86.7529 359.279 85.8525 359.277 84.9434H356.658C356.666 85.5099 356.562 86.0725 356.352 86.5985C356.141 87.1246 355.829 87.6038 355.432 88.0085Z" fill="black"/>
<path d="M349.29 68.8042L347.473 70.621C348.112 71.2659 348.872 71.7774 349.711 72.1257C350.549 72.4739 351.448 72.652 352.355 72.6495V70.086C351.785 70.0862 351.22 69.9729 350.694 69.7529C350.168 69.5328 349.691 69.2104 349.29 68.8042Z" fill="#407BFF"/>
<path d="M356.657 65.7388C356.657 66.8916 356.199 67.9973 355.384 68.8125C354.569 69.6277 353.463 70.0857 352.31 70.0857V72.6492C354.144 72.6492 355.903 71.9215 357.201 70.6259C358.499 69.3302 359.229 67.5726 359.232 65.7388H356.657Z" fill="#407BFF"/>
<path opacity="0.3" d="M356.657 65.7388C356.657 66.8916 356.199 67.9973 355.384 68.8125C354.569 69.6277 353.463 70.0857 352.31 70.0857V72.6492C354.144 72.6492 355.903 71.9215 357.201 70.6259C358.499 69.3302 359.229 67.5726 359.232 65.7388H356.657Z" fill="white"/>
<path d="M349.291 68.8039C348.886 68.4029 348.566 67.9254 348.347 67.3991C348.129 66.8729 348.018 66.3084 348.02 65.7388H345.446C345.443 66.6464 345.621 67.5454 345.969 68.3835C346.318 69.2216 346.829 69.9821 347.474 70.6207L349.291 68.8039Z" fill="#407BFF"/>
<path opacity="0.5" d="M349.291 68.8039C348.886 68.4029 348.566 67.9254 348.347 67.3991C348.129 66.8729 348.018 66.3084 348.02 65.7388H345.446C345.443 66.6464 345.621 67.5454 345.969 68.3835C346.318 69.2216 346.829 69.9821 347.474 70.6207L349.291 68.8039Z" fill="black"/>
<path d="M352.355 61.3919C352.926 61.3905 353.492 61.5019 354.02 61.7198C354.548 61.9378 355.028 62.2579 355.432 62.6618C355.836 63.0658 356.156 63.5456 356.374 64.0736C356.592 64.6017 356.703 65.1676 356.702 65.7389H359.277C359.314 64.8073 359.163 63.8777 358.832 63.006C358.501 62.1343 357.998 61.3384 357.352 60.666C356.706 59.9937 355.931 59.4587 355.073 59.0933C354.216 58.7279 353.293 58.5396 352.361 58.5396C351.428 58.5396 350.505 58.7279 349.648 59.0933C348.79 59.4587 348.015 59.9937 347.369 60.666C346.723 61.3384 346.22 62.1343 345.889 63.006C345.558 63.8777 345.407 64.8073 345.445 65.7389H348.019C348.018 65.1685 348.129 64.6035 348.346 64.0762C348.563 63.5489 348.882 63.0696 349.285 62.6658C349.688 62.262 350.166 61.9416 350.693 61.723C351.22 61.5045 351.785 61.3919 352.355 61.3919Z" fill="#407BFF"/>
<path opacity="0.2" d="M355.431 62.6613L357.248 60.8445C356.608 60.1987 355.845 59.6868 355.005 59.3385C354.165 58.9902 353.264 58.8126 352.355 58.816V61.3907C352.926 61.3875 353.493 61.4983 354.021 61.7165C354.549 61.9346 355.029 62.2558 355.431 62.6613Z" fill="black"/>
<path d="M355.432 101.072L357.249 99.2549C357.895 99.8951 358.407 100.657 358.755 101.498C359.103 102.338 359.281 103.239 359.277 104.148H356.658C356.666 103.58 356.562 103.016 356.351 102.488C356.141 101.96 355.829 101.479 355.432 101.072Z" fill="#407BFF"/>
<path d="M352.355 108.493C353.508 108.493 354.613 108.035 355.429 107.22C356.244 106.405 356.702 105.299 356.702 104.146H359.277C359.277 105.982 358.547 107.742 357.249 109.04C355.951 110.338 354.191 111.068 352.355 111.068V108.493Z" fill="#407BFF"/>
<path opacity="0.3" d="M352.355 108.493C353.508 108.493 354.613 108.035 355.429 107.22C356.244 106.405 356.702 105.299 356.702 104.146H359.277C359.277 105.982 358.547 107.742 357.249 109.04C355.951 110.338 354.191 111.068 352.355 111.068V108.493Z" fill="white"/>
<path d="M355.431 101.071C355.027 100.667 354.547 100.348 354.02 100.13C353.492 99.9115 352.926 99.7996 352.355 99.8003V97.2256C353.264 97.2247 354.164 97.4034 355.004 97.7516C355.844 98.0997 356.606 98.6103 357.248 99.2541L355.431 101.071Z" fill="#407BFF"/>
<path opacity="0.5" d="M355.431 101.071C355.027 100.667 354.547 100.348 354.02 100.13C353.492 99.9115 352.926 99.7996 352.355 99.8003V97.2256C353.264 97.2247 354.164 97.4034 355.004 97.7516C355.844 98.0997 356.606 98.6103 357.248 99.2541L355.431 101.071Z" fill="black"/>
<path d="M348.019 104.147C348.019 105.298 348.476 106.402 349.289 107.217C350.101 108.032 351.204 108.491 352.355 108.494V111.069C350.519 111.069 348.759 110.34 347.461 109.041C346.163 107.743 345.433 105.983 345.433 104.147C345.433 102.311 346.163 100.551 347.461 99.2529C348.759 97.9548 350.519 97.2256 352.355 97.2256V99.8003C351.204 99.8032 350.101 100.263 349.289 101.077C348.476 101.892 348.019 102.996 348.019 104.147Z" fill="#407BFF"/>
<path opacity="0.2" d="M349.291 107.223L347.474 109.096C346.83 108.454 346.319 107.692 345.971 106.852C345.623 106.012 345.444 105.112 345.446 104.203H348.02C348.031 105.337 348.488 106.422 349.291 107.223Z" fill="black"/>
<path d="M221.847 177.951H248.809C249.592 177.951 250.344 178.262 250.898 178.816C251.451 179.37 251.763 180.121 251.763 180.904V182.543C251.763 183.326 251.451 184.077 250.898 184.631C250.344 185.185 249.592 185.496 248.809 185.496H221.847V177.951Z" fill="#263238"/>
<path d="M169.138 177.951H226.506C227.233 177.951 227.931 178.24 228.445 178.754C228.959 179.268 229.248 179.965 229.248 180.693V182.71C229.248 183.437 228.959 184.135 228.445 184.649C227.931 185.163 227.233 185.452 226.506 185.452H169.138C168.408 185.452 167.708 185.162 167.192 184.646C166.675 184.129 166.385 183.429 166.385 182.699V180.704C166.384 180.342 166.454 179.983 166.592 179.648C166.73 179.314 166.932 179.01 167.188 178.754C167.444 178.498 167.748 178.295 168.083 178.157C168.418 178.019 168.776 177.949 169.138 177.951Z" fill="black"/>
<path opacity="0.5" d="M169.138 177.951H226.506C227.233 177.951 227.931 178.24 228.445 178.754C228.959 179.268 229.248 179.965 229.248 180.693V182.71C229.248 183.437 228.959 184.135 228.445 184.649C227.931 185.163 227.233 185.452 226.506 185.452H169.138C168.408 185.452 167.708 185.162 167.192 184.646C166.675 184.129 166.385 183.429 166.385 182.699V180.704C166.384 180.342 166.454 179.983 166.592 179.648C166.73 179.314 166.932 179.01 167.188 178.754C167.444 178.498 167.748 178.295 168.083 178.157C168.418 178.019 168.776 177.949 169.138 177.951Z" fill="white"/>
<path d="M213.912 177.963H228.446L219.14 143.188H213.912V177.963Z" fill="#263238"/>
<path d="M226.328 177.963H196.657L193.704 143.188H217.021L226.328 177.963Z" fill="black"/>
<path opacity="0.3" d="M226.328 177.963H196.657L193.704 143.188H217.021L226.328 177.963Z" fill="white"/>
<path d="M301.062 43.2645H287.575L277.087 162.648H290.573C291.967 162.625 293.305 162.092 294.332 161.149C295.359 160.206 296.004 158.919 296.146 157.532L305.687 48.4139C305.765 47.7633 305.703 47.1035 305.505 46.4788C305.308 45.8541 304.979 45.2787 304.541 44.7913C304.103 44.3038 303.566 43.9155 302.966 43.6522C302.366 43.3889 301.717 43.2567 301.062 43.2645Z" fill="#263238"/>
<path d="M287.508 162.647H124.243C123.588 162.659 122.938 162.532 122.337 162.272C121.735 162.013 121.196 161.629 120.755 161.144C120.314 160.66 119.981 160.087 119.779 159.464C119.578 158.841 119.511 158.182 119.584 157.531L129.125 48.4132C129.269 47.0281 129.916 45.7439 130.943 44.8033C131.969 43.8627 133.305 43.3309 134.698 43.3084H297.952C298.605 43.2965 299.254 43.4242 299.855 43.6827C300.455 43.9412 300.994 44.3248 301.435 44.8077C301.876 45.2907 302.209 45.8621 302.411 46.4838C302.614 47.1055 302.682 47.7632 302.611 48.4132L293.07 157.531C292.928 158.917 292.284 160.202 291.26 161.145C290.235 162.087 288.9 162.622 287.508 162.647Z" fill="#263238"/>
<path opacity="0.7" d="M287.508 162.647H124.243C123.588 162.659 122.938 162.532 122.337 162.272C121.735 162.013 121.196 161.629 120.755 161.144C120.314 160.66 119.981 160.087 119.779 159.464C119.578 158.841 119.511 158.182 119.584 157.531L129.125 48.4132C129.269 47.0281 129.916 45.7439 130.943 44.8033C131.969 43.8627 133.305 43.3309 134.698 43.3084H297.952C298.605 43.2965 299.254 43.4242 299.855 43.6827C300.455 43.9412 300.994 44.3248 301.435 44.8077C301.876 45.2907 302.209 45.8621 302.411 46.4838C302.614 47.1055 302.682 47.7632 302.611 48.4132L293.07 157.531C292.928 158.917 292.284 160.202 291.26 161.145C290.235 162.087 288.9 162.622 287.508 162.647Z" fill="white"/>
<path opacity="0.9" d="M283.15 148.673H131.075C130.504 148.684 129.938 148.574 129.414 148.348C128.89 148.123 128.42 147.787 128.037 147.365C127.653 146.942 127.365 146.442 127.191 145.899C127.017 145.355 126.962 144.781 127.029 144.214L134.954 53.5535C135.073 52.3486 135.631 51.2294 136.52 50.4078C137.41 49.5862 138.569 49.1192 139.78 49.0951H291.854C292.425 49.0832 292.991 49.1938 293.516 49.4194C294.04 49.645 294.509 49.9804 294.893 50.4029C295.276 50.8255 295.565 51.3254 295.738 51.8689C295.912 52.4124 295.968 52.9868 295.9 53.5535L287.976 144.214C287.856 145.419 287.299 146.538 286.409 147.36C285.52 148.181 284.36 148.648 283.15 148.673Z" fill="#FAFAFA"/>
<path d="M243.325 81.1482H238.009L238.934 70.5039H244.261L243.325 81.1482Z" fill="#407BFF"/>
<path opacity="0.2" d="M243.325 81.1482H238.009L238.934 70.5039H244.261L243.325 81.1482Z" fill="black"/>
<path d="M253.97 81.1489H248.654L250.047 65.188H255.364L253.97 81.1489Z" fill="#407BFF"/>
<path d="M264.615 81.1496H259.287L260.457 67.8525H265.774L264.615 81.1496Z" fill="#407BFF"/>
<path d="M275.259 81.1496H269.931L271.793 59.8721H277.12L275.259 81.1496Z" fill="#407BFF"/>
<path opacity="0.4" d="M275.259 81.1496H269.931L271.793 59.8721H277.12L275.259 81.1496Z" fill="black"/>
<path d="M280.575 80.1685H233.763C234.35 73.4067 234.944 66.6411 235.546 59.8719C235.657 58.6124 233.685 58.6124 233.573 59.8719C232.964 66.9606 232.343 74.0532 231.712 81.1494C231.715 81.4086 231.819 81.6564 232.002 81.8397C232.186 82.023 232.433 82.1273 232.693 82.1302H280.62C280.88 82.1243 281.127 82.0153 281.307 81.8272C281.487 81.6391 281.584 81.3872 281.579 81.1271C281.573 80.867 281.464 80.6198 281.275 80.4401C281.087 80.2603 280.836 80.1626 280.575 80.1685Z" fill="#407BFF"/>
<path opacity="0.5" d="M280.575 80.1685H233.763C234.35 73.4067 234.944 66.6411 235.546 59.8719C235.657 58.6124 233.685 58.6124 233.573 59.8719C232.964 66.9606 232.343 74.0532 231.712 81.1494C231.715 81.4086 231.819 81.6564 232.002 81.8397C232.186 82.023 232.433 82.1273 232.693 82.1302H280.62C280.88 82.1243 281.127 82.0153 281.307 81.8272C281.487 81.6391 281.584 81.3872 281.579 81.1271C281.573 80.867 281.464 80.6198 281.275 80.4401C281.087 80.2603 280.836 80.1626 280.575 80.1685Z" fill="white"/>
<path d="M155.596 75.3867L152.13 78.5856C153.183 79.7231 154.463 80.6265 155.888 81.2371C157.313 81.8477 158.85 82.1519 160.4 82.13L160.79 77.6716C159.812 77.6772 158.844 77.4767 157.949 77.083C157.054 76.6892 156.253 76.1113 155.596 75.3867Z" fill="#407BFF"/>
<path opacity="0.5" d="M155.596 75.3867L152.13 78.5856C153.183 79.7231 154.463 80.6265 155.888 81.2371C157.313 81.8477 158.85 82.1519 160.4 82.13L160.79 77.6716C159.812 77.6772 158.844 77.4767 157.949 77.083C157.054 76.6892 156.253 76.1113 155.596 75.3867Z" fill="black"/>
<path d="M169.027 70.0041C168.815 72.0685 167.854 73.9839 166.326 75.3885C164.799 76.7931 162.809 77.5897 160.734 77.6279L160.344 82.0862C163.646 82.0272 166.812 80.7608 169.243 78.5265C171.675 76.2921 173.204 73.2444 173.541 69.9595L169.027 70.0041Z" fill="#407BFF"/>
<path opacity="0.1" d="M169.027 70.0041C168.815 72.0685 167.854 73.9839 166.326 75.3885C164.799 76.7931 162.809 77.5897 160.734 77.6279L160.344 82.0862C163.646 82.0272 166.812 80.7608 169.243 78.5265C171.675 76.2921 173.204 73.2444 173.541 69.9595L169.027 70.0041Z" fill="black"/>
<path d="M155.596 75.3869C154.944 74.6618 154.45 73.8083 154.147 72.8812C153.844 71.9542 153.738 70.9739 153.835 70.0034H149.377C149.219 71.55 149.386 73.1124 149.868 74.5905C150.35 76.0685 151.136 77.4294 152.175 78.5858L155.596 75.3869Z" fill="#407BFF"/>
<path d="M162.072 62.3346C163.049 62.3159 164.018 62.5058 164.916 62.8916C165.813 63.2774 166.618 63.8503 167.276 64.5718C167.934 65.2934 168.431 66.1472 168.733 67.0761C169.035 68.005 169.135 68.9876 169.027 69.9584H173.486C173.646 68.4228 173.48 66.8706 172.998 65.4039C172.516 63.9371 171.729 62.5889 170.689 61.4478C169.649 60.3067 168.379 59.3985 166.963 58.783C165.548 58.1674 164.017 57.8584 162.474 57.8762C159.17 57.9355 156.003 59.2035 153.571 61.4401C151.139 63.6768 149.612 66.7271 149.277 70.0141H153.735C153.933 67.9311 154.894 65.9948 156.433 64.5772C157.972 63.1597 159.98 62.3609 162.072 62.3346Z" fill="#407BFF"/>
<path opacity="0.2" d="M162.072 62.3346C163.049 62.3159 164.018 62.5058 164.916 62.8916C165.813 63.2774 166.618 63.8503 167.276 64.5718C167.934 65.2934 168.431 66.1472 168.733 67.0761C169.035 68.005 169.135 68.9876 169.027 69.9584H173.486C173.646 68.4228 173.48 66.8706 172.998 65.4039C172.516 63.9371 171.729 62.5889 170.689 61.4478C169.649 60.3067 168.379 59.3985 166.963 58.783C165.548 58.1674 164.017 57.8584 162.474 57.8762C159.17 57.9355 156.003 59.2035 153.571 61.4401C151.139 63.6768 149.612 66.7271 149.277 70.0141H153.735C153.933 67.9311 154.894 65.9948 156.433 64.5772C157.972 63.1597 159.98 62.3609 162.072 62.3346Z" fill="white"/>
<path opacity="0.6" d="M167.266 64.5631L170.732 61.3753C169.682 60.2361 168.404 59.3307 166.981 58.7181C165.558 58.1055 164.022 57.7994 162.473 57.8198L162.072 62.2782C163.05 62.2711 164.018 62.4711 164.913 62.8649C165.808 63.2587 166.61 63.8374 167.266 64.5631Z" fill="white"/>
<path d="M189.335 75.3867L185.869 78.5856C186.922 79.7225 188.203 80.6255 189.628 81.2361C191.052 81.8467 192.589 82.1512 194.139 82.13L194.54 77.6716C193.561 77.6781 192.591 77.478 191.694 77.0842C190.797 76.6905 189.993 76.1121 189.335 75.3867Z" fill="#407BFF"/>
<path opacity="0.5" d="M189.335 75.3867L185.869 78.5856C186.922 79.7225 188.203 80.6255 189.628 81.2361C191.052 81.8467 192.589 82.1512 194.139 82.13L194.54 77.6716C193.561 77.6781 192.591 77.478 191.694 77.0842C190.797 76.6905 189.993 76.1121 189.335 75.3867Z" fill="black"/>
<path d="M202.822 70.0041C202.61 72.0667 201.651 73.9805 200.125 75.3849C198.6 76.7892 196.613 77.587 194.54 77.6279L194.139 82.0862C197.441 82.0272 200.606 80.7608 203.038 78.5265C205.47 76.2921 206.998 73.2444 207.336 69.9595L202.822 70.0041Z" fill="#407BFF"/>
<path opacity="0.1" d="M202.822 70.0041C202.61 72.0667 201.651 73.9805 200.125 75.3849C198.6 76.7892 196.613 77.587 194.54 77.6279L194.139 82.0862C197.441 82.0272 200.606 80.7608 203.038 78.5265C205.47 76.2921 206.998 73.2444 207.336 69.9595L202.822 70.0041Z" fill="black"/>
<path d="M189.334 75.3869C188.684 74.6607 188.191 73.807 187.888 72.8803C187.585 71.9535 187.478 70.9738 187.573 70.0034H183.115C182.957 71.55 183.124 73.1124 183.606 74.5905C184.088 76.0685 184.874 77.4294 185.913 78.5858L189.334 75.3869Z" fill="#407BFF"/>
<path d="M195.866 62.3346C196.843 62.3159 197.812 62.5058 198.709 62.8916C199.606 63.2774 200.411 63.8503 201.069 64.5718C201.728 65.2934 202.225 66.1472 202.527 67.0761C202.829 68.005 202.929 68.9876 202.821 69.9584H207.279C207.44 68.4228 207.274 66.8706 206.792 65.4039C206.31 63.9371 205.523 62.5889 204.483 61.4478C203.443 60.3067 202.173 59.3985 200.757 58.783C199.341 58.1674 197.811 57.8584 196.267 57.8762C192.964 57.9355 189.797 59.2035 187.365 61.4401C184.933 63.6768 183.405 66.7271 183.07 70.0141H187.529C187.727 67.9311 188.687 65.9948 190.226 64.5772C191.765 63.1597 193.774 62.3609 195.866 62.3346Z" fill="#407BFF"/>
<path opacity="0.2" d="M195.866 62.3346C196.843 62.3159 197.812 62.5058 198.709 62.8916C199.606 63.2774 200.411 63.8503 201.069 64.5718C201.728 65.2934 202.225 66.1472 202.527 67.0761C202.829 68.005 202.929 68.9876 202.821 69.9584H207.279C207.44 68.4228 207.274 66.8706 206.792 65.4039C206.31 63.9371 205.523 62.5889 204.483 61.4478C203.443 60.3067 202.173 59.3985 200.757 58.783C199.341 58.1674 197.811 57.8584 196.267 57.8762C192.964 57.9355 189.797 59.2035 187.365 61.4401C184.933 63.6768 183.405 66.7271 183.07 70.0141H187.529C187.727 67.9311 188.687 65.9948 190.226 64.5772C191.765 63.1597 193.774 62.3609 195.866 62.3346Z" fill="white"/>
<path opacity="0.6" d="M201.06 64.5631L204.527 61.3753C203.477 60.2361 202.199 59.3307 200.776 58.7181C199.353 58.1055 197.817 57.7994 196.268 57.8198L195.866 62.2782C196.844 62.2711 197.813 62.4711 198.708 62.8649C199.603 63.2587 200.405 63.8374 201.06 64.5631Z" fill="white"/>
<path d="M240.116 120.629H233.762L234.309 114.275H240.673L240.116 120.629ZM235.256 119.246H238.845L239.168 115.657H235.579L235.256 119.246Z" fill="#407BFF"/>
<path d="M239.269 130.325H232.916L233.462 123.972H239.826L239.269 130.325ZM234.42 128.943H238.009L238.321 125.354H234.732L234.42 128.943Z" fill="#407BFF"/>
<path d="M238.421 139.966H232.068L232.625 133.624H238.978L238.421 139.966ZM233.617 138.595H237.206L237.518 134.995H233.929L233.617 138.595Z" fill="#407BFF"/>
<path d="M244.518 119.179C244.319 119.184 244.122 119.146 243.939 119.068C243.757 118.989 243.593 118.873 243.459 118.726C243.324 118.58 243.223 118.406 243.162 118.217C243.101 118.028 243.08 117.828 243.103 117.63C243.146 117.211 243.341 116.822 243.651 116.537C243.961 116.252 244.364 116.09 244.786 116.081H266.041C266.24 116.076 266.437 116.115 266.62 116.193C266.803 116.271 266.966 116.387 267.101 116.534C267.235 116.681 267.336 116.855 267.397 117.044C267.459 117.233 267.479 117.433 267.456 117.63C267.415 118.05 267.221 118.44 266.911 118.726C266.6 119.012 266.195 119.173 265.773 119.179H244.518Z" fill="#407BFF"/>
<path opacity="0.7" d="M244.518 119.179C244.319 119.184 244.122 119.146 243.939 119.068C243.757 118.989 243.593 118.873 243.459 118.726C243.324 118.58 243.223 118.406 243.162 118.217C243.101 118.028 243.08 117.828 243.103 117.63C243.146 117.211 243.341 116.822 243.651 116.537C243.961 116.252 244.364 116.09 244.786 116.081H266.041C266.24 116.076 266.437 116.115 266.62 116.193C266.803 116.271 266.966 116.387 267.101 116.534C267.235 116.681 267.336 116.855 267.397 117.044C267.459 117.233 267.479 117.433 267.456 117.63C267.415 118.05 267.221 118.44 266.911 118.726C266.6 119.012 266.195 119.173 265.773 119.179H244.518Z" fill="white"/>
<path d="M242.835 138.349C242.637 138.35 242.442 138.309 242.261 138.23C242.08 138.15 241.917 138.034 241.784 137.888C241.65 137.742 241.549 137.57 241.486 137.382C241.424 137.195 241.401 136.996 241.42 136.799C241.463 136.379 241.66 135.988 241.972 135.703C242.284 135.417 242.691 135.256 243.114 135.25H260.947C261.145 135.247 261.341 135.287 261.523 135.366C261.704 135.444 261.867 135.561 261.999 135.708C262.132 135.854 262.232 136.027 262.293 136.216C262.354 136.404 262.374 136.603 262.352 136.799C262.308 137.218 262.113 137.607 261.803 137.893C261.493 138.178 261.09 138.34 260.669 138.349H242.835Z" fill="#407BFF"/>
<path opacity="0.4" d="M242.835 138.349C242.637 138.35 242.442 138.309 242.261 138.23C242.08 138.15 241.917 138.034 241.784 137.888C241.65 137.742 241.549 137.57 241.486 137.382C241.424 137.195 241.401 136.996 241.42 136.799C241.463 136.379 241.66 135.988 241.972 135.703C242.284 135.417 242.691 135.256 243.114 135.25H260.947C261.145 135.247 261.341 135.287 261.523 135.366C261.704 135.444 261.867 135.561 261.999 135.708C262.132 135.854 262.232 136.027 262.293 136.216C262.354 136.404 262.374 136.603 262.352 136.799C262.308 137.218 262.113 137.607 261.803 137.893C261.493 138.178 261.09 138.34 260.669 138.349H242.835Z" fill="white"/>
<path d="M243.648 128.675C243.45 128.677 243.254 128.638 243.072 128.559C242.89 128.481 242.727 128.364 242.593 128.218C242.459 128.072 242.358 127.899 242.296 127.71C242.234 127.522 242.212 127.323 242.233 127.126C242.276 126.705 242.473 126.314 242.785 126.029C243.098 125.743 243.504 125.582 243.927 125.576H260.367C260.565 125.574 260.762 125.613 260.944 125.692C261.126 125.771 261.289 125.887 261.423 126.033C261.556 126.18 261.658 126.353 261.72 126.541C261.782 126.729 261.803 126.928 261.783 127.126C261.739 127.545 261.544 127.933 261.234 128.219C260.924 128.504 260.521 128.666 260.1 128.675H243.648Z" fill="#407BFF"/>
<path opacity="0.2" d="M243.648 128.675C243.45 128.677 243.254 128.638 243.072 128.559C242.89 128.481 242.727 128.364 242.593 128.218C242.459 128.072 242.358 127.899 242.296 127.71C242.234 127.522 242.212 127.323 242.233 127.126C242.276 126.705 242.473 126.314 242.785 126.029C243.098 125.743 243.504 125.582 243.927 125.576H260.367C260.565 125.574 260.762 125.613 260.944 125.692C261.126 125.771 261.289 125.887 261.423 126.033C261.556 126.18 261.658 126.353 261.72 126.541C261.782 126.729 261.803 126.928 261.783 127.126C261.739 127.545 261.544 127.933 261.234 128.219C260.924 128.504 260.521 128.666 260.1 128.675H243.648Z" fill="white"/>
<path d="M223.062 129.835C221.472 127.605 219.871 125.417 218.258 123.27C218.179 123.142 218.072 123.033 217.945 122.951C217.819 122.87 217.675 122.818 217.526 122.798C217.376 122.779 217.225 122.793 217.081 122.84C216.938 122.887 216.807 122.965 216.698 123.069L211.604 128.642C210.267 126.413 208.94 124.262 207.603 122.066C207.526 121.935 207.42 121.824 207.294 121.74C207.168 121.656 207.024 121.602 206.874 121.582C206.724 121.561 206.571 121.575 206.427 121.623C206.283 121.67 206.152 121.749 206.043 121.854C204.281 123.47 202.565 125.142 200.759 126.714C200.224 126.424 199.645 126.09 199.177 125.777L196.279 124.061C196.05 123.933 195.781 123.899 195.527 123.966C195.274 124.032 195.056 124.194 194.919 124.418L189.77 131.874C188.491 129.392 187.213 126.907 185.935 124.418C185.799 124.194 185.581 124.032 185.327 123.966C185.074 123.899 184.804 123.933 184.576 124.061L182.112 125.376C181.622 125.655 179.883 126.491 179.46 126.859C178.773 126.391 178.058 125.967 177.32 125.588L174.745 124.061C174.517 123.928 174.246 123.891 173.991 123.958C173.736 124.025 173.518 124.19 173.385 124.418C173.252 124.645 173.215 124.916 173.282 125.171C173.349 125.426 173.514 125.644 173.742 125.777C175.168 126.625 177.71 128.976 179.393 128.965C181.076 128.954 183.082 127.36 184.676 126.324L188.789 134.304C188.878 134.452 189.004 134.574 189.154 134.659C189.305 134.743 189.474 134.788 189.647 134.788C189.82 134.788 189.989 134.743 190.14 134.659C190.29 134.574 190.416 134.452 190.505 134.304L196.078 126.246L200.403 128.798C200.593 128.905 200.814 128.948 201.031 128.92C201.247 128.892 201.45 128.794 201.606 128.642L206.533 124.117L210.601 130.804C210.679 130.934 210.786 131.044 210.912 131.127C211.039 131.21 211.183 131.263 211.333 131.282C211.483 131.301 211.636 131.286 211.779 131.238C211.923 131.19 212.053 131.111 212.162 131.005L217.333 125.298L221.357 130.804C222.104 131.852 223.82 130.86 223.062 129.835Z" fill="#407BFF"/>
<path d="M221.458 137.982H174.099C174.701 131.138 175.299 124.295 175.893 117.451C176.005 116.18 174.021 116.18 173.909 117.451L172.026 138.974C172.029 139.236 172.134 139.487 172.32 139.672C172.505 139.857 172.756 139.963 173.018 139.966H221.458C221.721 139.966 221.973 139.861 222.159 139.675C222.345 139.489 222.45 139.237 222.45 138.974C222.45 138.711 222.345 138.458 222.159 138.272C221.973 138.086 221.721 137.982 221.458 137.982Z" fill="#407BFF"/>
<path opacity="0.5" d="M221.458 137.982H174.099C174.701 131.138 175.299 124.295 175.893 117.451C176.005 116.18 174.021 116.18 173.909 117.451L172.026 138.974C172.029 139.236 172.134 139.487 172.32 139.672C172.505 139.857 172.756 139.963 173.018 139.966H221.458C221.721 139.966 221.973 139.861 222.159 139.675C222.345 139.489 222.45 139.237 222.45 138.974C222.45 138.711 222.345 138.458 222.159 138.272C221.973 138.086 221.721 137.982 221.458 137.982Z" fill="white"/>
<path d="M273.018 108.803H188.499L190.382 87.2358H274.902L273.018 108.803Z" fill="#407BFF"/>
<path opacity="0.9" d="M273.018 108.803H188.499L190.382 87.2358H274.902L273.018 108.803Z" fill="white"/>
<path d="M274.512 110.441H186.716L188.945 85.5967H276.741L274.512 110.441ZM190.282 107.164H271.514L273.119 88.8847H191.887L190.282 107.164Z" fill="#263238"/>
<path d="M207.592 100.91L207.436 102.627H200.314L201.116 93.4204H208.071L207.926 95.1257H203.089L202.911 97.132H207.18L207.035 98.7816H202.766L202.576 100.91H207.592Z" fill="#407BFF"/>
<path d="M214.837 102.627L212.898 99.428L210.434 102.627H207.982L211.794 97.9456L208.952 93.4204H211.371L213.232 96.4075L215.561 93.4204H217.869L214.268 97.8788L217.289 102.638L214.837 102.627Z" fill="#407BFF"/>
<path d="M220.588 95.1592H217.646L217.802 93.4204H225.815L225.671 95.1592H222.728L222.07 102.627H219.942L220.588 95.1592Z" fill="#407BFF"/>
<path d="M232.023 102.627L230.474 100.063H228.512L228.29 102.627H226.161L226.963 93.4202H230.942C231.661 93.4011 232.376 93.538 233.038 93.8215C233.569 94.053 234.016 94.4421 234.319 94.9361C234.608 95.4834 234.724 96.1049 234.654 96.7194C234.606 97.3551 234.382 97.9648 234.007 98.4804C233.616 98.9813 233.096 99.3666 232.503 99.595L234.308 102.56L232.023 102.627ZM232.101 95.5714C231.692 95.2644 231.185 95.1177 230.675 95.159H228.936L228.657 98.3579H230.396C230.926 98.3913 231.452 98.2461 231.89 97.9454C232.067 97.8013 232.212 97.6218 232.315 97.4183C232.419 97.2149 232.479 96.992 232.492 96.764C232.526 96.5485 232.509 96.3279 232.441 96.1204C232.373 95.913 232.257 95.7248 232.101 95.5714Z" fill="#407BFF"/>
<path d="M242.055 100.654H237.786L236.794 102.627H234.565L239.469 93.4204H241.575L244.919 102.627H242.69L242.055 100.654ZM241.52 99.0268L240.405 95.5047L238.644 99.0268H241.52Z" fill="#407BFF"/>
<path d="M247.662 102.17C246.958 101.783 246.387 101.193 246.023 100.476C245.639 99.7198 245.488 98.8665 245.588 98.0241C245.656 97.146 245.952 96.3007 246.447 95.572C246.94 94.8528 247.607 94.27 248.386 93.8778C249.193 93.4644 250.088 93.254 250.994 93.2648C251.725 93.2496 252.451 93.3902 253.123 93.6772C253.721 93.9503 254.242 94.3678 254.639 94.8921L253.157 96.1516C252.903 95.7988 252.568 95.513 252.18 95.3188C251.791 95.1246 251.361 95.0279 250.927 95.037C250.389 95.0303 249.856 95.1567 249.378 95.4048C248.918 95.6465 248.533 96.0087 248.263 96.4525C247.966 96.9101 247.79 97.4354 247.751 97.9795C247.692 98.5013 247.776 99.0294 247.996 99.5065C248.196 99.9421 248.528 100.304 248.943 100.543C249.397 100.805 249.914 100.936 250.437 100.922C250.895 100.919 251.346 100.818 251.762 100.626C252.177 100.434 252.546 100.155 252.844 99.8074L254.104 101.067C253.623 101.601 253.029 102.02 252.365 102.293C251.658 102.583 250.9 102.727 250.136 102.716C249.278 102.748 248.426 102.56 247.662 102.17Z" fill="#407BFF"/>
<path d="M257.859 95.1592H254.917L255.073 93.4204H263.087L262.942 95.1592H259.988L259.342 102.627H257.213L257.859 95.1592Z" fill="#407BFF"/>
</svg>
