<svg width="32" height="32" viewBox="0 0 32 32" fill="none" xmlns="http://www.w3.org/2000/svg">
<path d="M13.3334 26.6665H18.6667V26.6665C18.6667 28.1393 17.4728 29.3332 16 29.3332V29.3332C14.5273 29.3332 13.3334 28.1393 13.3334 26.6665V26.6665Z" fill="#444BD3"/>
<path d="M17.3392 5.3335H14.6608L13.2924 5.82578C10.1174 6.96792 8.0003 9.97935 8.0003 13.3535V17.7807C8.0003 18.759 7.5403 19.6804 6.75835 20.2683C4.02853 22.3208 5.48011 26.6668 8.89547 26.6668H23.105C26.5204 26.6668 27.972 22.3208 25.2422 20.2683C24.4603 19.6804 24.0003 18.759 24.0003 17.7807V13.3537C24.0003 9.97941 21.8831 6.96793 18.708 5.82585L17.3392 5.3335Z" fill="#6068DB"/>
<path d="M14.6666 3.99984C14.6666 3.26346 15.2636 2.6665 16 2.6665V2.6665C16.7363 2.6665 17.3333 3.26346 17.3333 3.99984V5.33317H14.6666V3.99984Z" fill="#444BD3"/>
</svg>
