<svg width="32" height="32" viewBox="0 0 32 32" fill="none" xmlns="http://www.w3.org/2000/svg">
<path d="M12.3334 6C11.5892 6 10.8523 6.14657 10.1648 6.43135C9.4773 6.71613 8.85261 7.13353 8.32642 7.65973C7.80022 8.18593 7.38281 8.81062 7.09804 9.49813C6.81326 10.1856 6.66669 10.9225 6.66669 11.6667C6.66669 12.4108 6.81326 13.1477 7.09804 13.8352C7.38281 14.5227 7.80022 15.1474 8.32642 15.6736C8.85261 16.1998 9.4773 16.6172 10.1648 16.902C10.8523 17.1868 11.5892 17.3333 12.3334 17.3333C13.0775 17.3333 13.8144 17.1868 14.5019 16.902C15.1894 16.6172 15.8141 16.1998 16.3403 15.6736C16.8665 15.1474 17.2839 14.5227 17.5687 13.8352C17.8534 13.1477 18 12.4108 18 11.6667C18 10.9225 17.8534 10.1856 17.5687 9.49813C17.2839 8.81062 16.8665 8.18593 16.3403 7.65973C15.8141 7.13353 15.1894 6.71613 14.5019 6.43135C13.8144 6.14657 13.0775 6 12.3334 6Z" fill="#90ECF4"/>
<path d="M12.6667 16.6665C11.429 16.6665 10.242 17.1582 9.36684 18.0333C8.49167 18.9085 8 20.0955 8 21.3332C8 22.5708 8.49167 23.7578 9.36684 24.633C10.242 25.5082 11.429 25.9998 12.6667 25.9998C13.9043 25.9998 15.0913 25.5082 15.9665 24.633C16.8417 23.7578 17.3333 22.5708 17.3333 21.3332C17.3333 20.0955 16.8417 18.9085 15.9665 18.0333C15.0913 17.1582 13.9043 16.6665 12.6667 16.6665Z" fill="#90ECF4"/>
<path d="M7.33335 12.6665C6.09568 12.6665 4.90869 13.1582 4.03352 14.0333C3.15835 14.9085 2.66669 16.0955 2.66669 17.3332C2.66669 18.5708 3.15835 19.7578 4.03352 20.633C4.90869 21.5082 6.09568 21.9998 7.33335 21.9998C8.57103 21.9998 9.75801 21.5082 10.6332 20.633C11.5084 19.7578 12 18.5708 12 17.3332C12 16.0955 11.5084 14.9085 10.6332 14.0333C9.75801 13.1582 8.57103 12.6665 7.33335 12.6665ZM25.3334 12.6665C24.8081 12.6665 24.2879 12.77 23.8026 12.971C23.3173 13.172 22.8764 13.4666 22.5049 13.8381C22.1335 14.2095 21.8389 14.6505 21.6378 15.1358C21.4368 15.6211 21.3334 16.1412 21.3334 16.6665C21.3334 17.1918 21.4368 17.7119 21.6378 18.1972C21.8389 18.6825 22.1335 19.1235 22.5049 19.4949C22.8764 19.8664 23.3173 20.161 23.8026 20.362C24.2879 20.563 24.8081 20.6665 25.3334 20.6665C25.8586 20.6665 26.3788 20.563 26.8641 20.362C27.3494 20.161 27.7903 19.8664 28.1618 19.4949C28.5332 19.1235 28.8279 18.6825 29.0289 18.1972C29.2299 17.7119 29.3334 17.1918 29.3334 16.6665C29.3334 16.1412 29.2299 15.6211 29.0289 15.1358C28.8279 14.6505 28.5332 14.2095 28.1618 13.8381C27.7903 13.4666 27.3494 13.172 26.8641 12.971C26.3788 12.77 25.8586 12.6665 25.3334 12.6665Z" fill="#90ECF4"/>
<path d="M20 16C18.9391 16 17.9217 16.4214 17.1716 17.1716C16.4214 17.9217 16 18.9391 16 20C16 21.0609 16.4214 22.0783 17.1716 22.8284C17.9217 23.5786 18.9391 24 20 24C21.0609 24 22.0783 23.5786 22.8284 22.8284C23.5786 22.0783 24 21.0609 24 20C24 18.9391 23.5786 17.9217 22.8284 17.1716C22.0783 16.4214 21.0609 16 20 16Z" fill="#90ECF4"/>
<path d="M20.3333 8C19.1841 8 18.0819 8.45655 17.2692 9.2692C16.4565 10.0819 16 11.1841 16 12.3333C16 13.4826 16.4565 14.5848 17.2692 15.3975C18.0819 16.2101 19.1841 16.6667 20.3333 16.6667C21.4826 16.6667 22.5848 16.2101 23.3975 15.3975C24.2101 14.5848 24.6667 13.4826 24.6667 12.3333C24.6667 11.1841 24.2101 10.0819 23.3975 9.2692C22.5848 8.45655 21.4826 8 20.3333 8Z" fill="#90ECF4"/>
<path d="M15.3334 11.3335C14.7205 11.3335 14.1137 11.4542 13.5475 11.6887C12.9813 11.9232 12.4669 12.267 12.0335 12.7003C11.6002 13.1337 11.2564 13.6481 11.0219 14.2143C10.7874 14.7805 10.6667 15.3873 10.6667 16.0002C10.6667 16.613 10.7874 17.2198 11.0219 17.786C11.2564 18.3522 11.6002 18.8667 12.0335 19.3C12.4669 19.7333 12.9813 20.0771 13.5475 20.3116C14.1137 20.5461 14.7205 20.6668 15.3334 20.6668C15.9462 20.6668 16.553 20.5461 17.1192 20.3116C17.6854 20.0771 18.1998 19.7333 18.6332 19.3C19.0665 18.8667 19.4103 18.3522 19.6448 17.786C19.8793 17.2198 20 16.613 20 16.0002C20 15.3873 19.8793 14.7805 19.6448 14.2143C19.4103 13.6481 19.0665 13.1337 18.6332 12.7003C18.1998 12.267 17.6854 11.9232 17.1192 11.6887C16.553 11.4542 15.9462 11.3335 15.3334 11.3335Z" fill="#90ECF4"/>
<path d="M12.0226 14.6665H20V17.3332H12.0226V14.6665Z" fill="#3F51B5"/>
<path d="M8.29199 16L13.0647 12V20L8.29199 16ZM23.7313 16L18.9587 12V20L23.7313 16Z" fill="#444BD3"/>
</svg>
