<svg width="32" height="32" viewBox="0 0 32 32" fill="none" xmlns="http://www.w3.org/2000/svg">
<path d="M29.3333 16.0001C29.3333 23.3639 23.3638 29.3334 16 29.3334C8.63616 29.3334 2.66663 23.3639 2.66663 16.0001C2.66663 8.63628 8.63616 2.66675 16 2.66675C23.3638 2.66675 29.3333 8.63628 29.3333 16.0001Z" fill="#90ECF4"/>
<path fill-rule="evenodd" clip-rule="evenodd" d="M14.6666 6.66659C14.6666 5.93021 15.2636 5.33325 16 5.33325C16.7363 5.33325 17.3333 5.93021 17.3333 6.66659V7.99992C19.5424 7.99992 21.3333 9.79078 21.3333 11.9999C21.3333 12.7363 20.7363 13.3333 20 13.3333C19.2636 13.3333 18.6666 12.7363 18.6666 11.9999C18.6666 11.2635 18.0697 10.6666 17.3333 10.6666H14.6666C13.9302 10.6666 13.3333 11.2635 13.3333 11.9999V12.7446C13.3333 13.3185 13.7005 13.828 14.245 14.0095L18.5982 15.4605C20.2316 16.005 21.3333 17.5336 21.3333 19.2553V19.9999C21.3333 22.2091 19.5424 23.9999 17.3333 23.9999V25.3333C17.3333 26.0696 16.7363 26.6666 16 26.6666C15.2636 26.6666 14.6666 26.0696 14.6666 25.3333V23.9999C12.4575 23.9999 10.6666 22.2091 10.6666 19.9999C10.6666 19.2635 11.2636 18.6666 12 18.6666C12.7363 18.6666 13.3333 19.2635 13.3333 19.9999C13.3333 20.7363 13.9302 21.3333 14.6666 21.3333H17.3333C18.0697 21.3333 18.6666 20.7363 18.6666 19.9999V19.2553C18.6666 18.6814 18.2994 18.1719 17.7549 17.9904L13.4017 16.5393C11.7683 15.9948 10.6666 14.4663 10.6666 12.7446V11.9999C10.6666 9.79078 12.4575 7.99992 14.6666 7.99992V6.66659Z" fill="#6068DB"/>
</svg>
