<svg width="24" height="24" viewBox="0 0 24 24" fill="none" xmlns="http://www.w3.org/2000/svg">
<path d="M24 11.9981C23.9996 9.70494 23.3422 7.45988 22.1056 5.52872C20.8689 3.59756 19.1048 2.06118 17.0221 1.10146C14.9394 0.141742 12.6254 -0.201124 10.3538 0.113452C8.08235 0.428029 5.94855 1.38688 4.20505 2.87648C2.46156 4.36608 1.18139 6.32406 0.516104 8.51861C-0.149186 10.7132 -0.171736 13.0524 0.451122 15.2594C1.07398 17.4663 2.31616 19.4486 4.03061 20.9716C5.74506 22.4945 7.85999 23.4943 10.125 23.8526V15.4669H7.0785V11.9981H10.125V9.35437C10.125 6.34687 11.9167 4.68562 14.6572 4.68562C15.5573 4.6981 16.4551 4.77631 17.3438 4.91962V7.87312H15.8302C15.5723 7.83886 15.31 7.86309 15.0628 7.94399C14.8155 8.0249 14.5896 8.16041 14.4018 8.34049C14.214 8.52056 14.0691 8.74059 13.978 8.98426C13.8868 9.22793 13.8516 9.489 13.875 9.74812V11.9981H17.2035L16.671 15.4669H13.875V23.8526C16.6978 23.4061 19.2686 21.9667 21.1248 19.7935C22.9809 17.6203 24.0005 14.8561 24 11.9981Z" fill="#525252"/>
</svg>
