<svg width="32" height="32" viewBox="0 0 32 32" fill="none" xmlns="http://www.w3.org/2000/svg">
<path d="M24.6667 19.3332H27.2634L24.538 10.6812C23.6174 6.10917 19.5794 2.6665 14.7367 2.6665C9.21403 2.6665 4.73669 7.14384 4.73669 12.6665C4.73669 15.5905 5.99936 18.2132 8.00003 20.0412V29.3332H18.6667V24.6665H24.6667V19.3332Z" fill="#3DD9EB"/>
<path d="M20 11.3333C20 8.388 17.612 6 14.6666 6C11.7213 6 9.33331 8.388 9.33331 11.3333C9.33331 13.5713 10.7126 15.484 12.6666 16.2753V18.5833H16.6666V16.2753C18.6206 15.484 20 13.5713 20 11.3333Z" fill="#6068DB"/>
<path d="M17.3333 19.2175L14.6667 19.9715L12 19.2175V17.3335H17.3333V19.2175Z" fill="#444BD3"/>
<path d="M16.6667 17.3335H12.6667V18.5835H16.6667V17.3335Z" fill="#444BD3"/>
</svg>
