<svg width="32" height="33" viewBox="0 0 32 33" fill="none" xmlns="http://www.w3.org/2000/svg">
<path d="M15.1104 25.5474L10.8678 21.3047L9.45356 22.7189L13.6961 26.9616L15.1104 25.5474Z" fill="#90ECF4"/>
<path d="M12.2818 28.3755L8.03918 24.1328L6.62495 25.547L10.8675 29.7897L12.2818 28.3755Z" fill="#90ECF4"/>
<path d="M12.2818 25.5474L8.03918 21.3047L6.62495 22.7189L10.8675 26.9616L12.2818 25.5474Z" fill="#90ECF4"/>
<path d="M3.98071 27.2484C3.98071 25.4078 3.98071 24.3751 3.98071 22.5344L15.582 10.9331L20.296 15.6471L8.69471 27.2484C6.85338 27.2484 5.82138 27.2484 3.98071 27.2484Z" fill="#90ECF4"/>
<path d="M19.3527 20.5433C24.1392 20.5433 28.0194 16.6631 28.0194 11.8766C28.0194 7.09016 24.1392 3.20996 19.3527 3.20996C14.5662 3.20996 10.686 7.09016 10.686 11.8766C10.686 16.6631 14.5662 20.5433 19.3527 20.5433Z" fill="#90ECF4"/>
<path d="M19.3526 15.2101C21.1936 15.2101 22.686 13.7177 22.686 11.8768C22.686 10.0358 21.1936 8.54346 19.3526 8.54346C17.5117 8.54346 16.0193 10.0358 16.0193 11.8768C16.0193 13.7177 17.5117 15.2101 19.3526 15.2101Z" fill="#444BD3"/>
<path d="M12.7531 23.1897L10.3726 20.8091L6.12984 25.0516L8.5104 27.4323L12.7531 23.1897Z" fill="#6068DB"/>
</svg>
