<svg width="32" height="32" viewBox="0 0 32 32" fill="none" xmlns="http://www.w3.org/2000/svg">
<g clip-path="url(#clip0_163_1025)">
<path d="M29.3333 6H2.66663V26H29.3333V6Z" fill="#90ECF4"/>
<path d="M1.778 22H0.888667H0V26H2.66667V22H1.778Z" fill="#6068DB"/>
<path d="M31.1114 22H30.222H29.3334V26H32V22H31.1114Z" fill="#6068DB"/>
<path d="M21.3333 22V24H10.6666V22H2.66663V26H29.3333V22H21.3333Z" fill="#444BD3"/>
<path d="M16.7893 8.6665L12.7693 19.3332H15.082L19.102 8.6665H16.7893Z" fill="#6068DB"/>
<path d="M12.2807 11.5818L10.6567 9.9585L6.63867 13.9758L6.64201 13.9792L6.63867 13.9818L10.6567 17.9998L12.28 16.3765L9.88334 13.9792L12.2807 11.5818Z" fill="#6068DB"/>
<path d="M8.26202 12.3583L6.64136 13.979L8.26207 15.5997L9.88273 13.9789L8.26202 12.3583Z" fill="#444BD3"/>
<path d="M25.3399 13.9758L21.3219 9.9585L19.6986 11.5818L22.0959 13.9792L19.6986 16.3765L21.3226 17.9998L25.3399 13.9818L25.3373 13.9792L25.3399 13.9758Z" fill="#6068DB"/>
<path d="M23.7164 12.3593L22.0957 13.98L23.7164 15.6006L25.3371 13.9799L23.7164 12.3593Z" fill="#444BD3"/>
</g>
<defs>
<clipPath id="clip0_163_1025">
<rect width="32" height="32" fill="white"/>
</clipPath>
</defs>
</svg>
