<svg width="25" height="20" viewBox="0 0 25 20" fill="none" xmlns="http://www.w3.org/2000/svg">
<path d="M24.1683 2.325C23.2683 2.7 22.3683 3 21.3183 3.075C22.3683 2.475 23.1183 1.5 23.4933 0.375C22.5183 0.975 21.4683 1.35 20.3433 1.575C19.4433 0.6 18.1683 0 16.8183 0C14.1183 0 11.8683 2.175 11.8683 4.95C11.8683 5.325 11.9433 5.7 12.0183 6.075C7.89326 5.85 4.29326 3.9 1.81826 0.9C1.36826 1.65 1.14326 2.475 1.14326 3.375C1.14326 5.1 2.04326 6.6 3.31826 7.5C2.49326 7.5 1.74326 7.275 1.06826 6.9V6.975C1.06826 9.375 2.79326 11.325 5.04326 11.775C4.59326 11.85 4.21826 11.925 3.76826 11.925C3.46826 11.925 3.16826 11.925 2.86826 11.85C3.46826 13.8 5.34326 15.225 7.44326 15.3C5.79326 16.65 3.61826 17.4 1.29326 17.4C0.918262 17.4 0.468262 17.4 0.0932617 17.325C2.34326 18.675 4.96826 19.5 7.74326 19.5C16.8183 19.5 21.7683 12 21.7683 5.475C21.7683 5.25 21.7683 5.025 21.7683 4.875C22.6683 4.125 23.4933 3.3 24.1683 2.325Z" fill="#525252"/>
</svg>
