<svg width="85" height="85" viewBox="0 0 85 85" fill="none" xmlns="http://www.w3.org/2000/svg">
<path d="M85 42.5C85 65.9706 65.9706 85 42.5 85C19.0294 85 0 65.9706 0 42.5C0 19.0294 19.0294 0 42.5 0C65.9706 0 85 19.0294 85 42.5Z" fill="#90ECF4"/>
<path d="M33.3564 34.356L24 42.4999H61L51.6436 34.356C46.402 29.7934 38.598 29.7934 33.3564 34.356Z" fill="#444BD3"/>
<path d="M33.3564 50.6439L24 42.5H61L51.6436 50.6439C46.402 55.2064 38.598 55.2064 33.3564 50.6439Z" fill="#444BD3"/>
<path d="M42.5 50.9793C47.183 50.9793 50.9792 47.1831 50.9792 42.5002C50.9792 37.8172 47.183 34.021 42.5 34.021C37.8171 34.021 34.0209 37.8172 34.0209 42.5002C34.0209 47.1831 37.8171 50.9793 42.5 50.9793Z" fill="#7DEBF5"/>
<path d="M42.5 47.125C45.0543 47.125 47.125 45.0543 47.125 42.5C47.125 39.9457 45.0543 37.875 42.5 37.875C39.9457 37.875 37.875 39.9457 37.875 42.5C37.875 45.0543 39.9457 47.125 42.5 47.125Z" fill="#00B3D7"/>
</svg>
