<svg width="86" height="85" viewBox="0 0 86 85" fill="none" xmlns="http://www.w3.org/2000/svg">
<path d="M85.5 42.5C85.5 65.9706 66.4706 85 43 85C19.5294 85 0.5 65.9706 0.5 42.5C0.5 19.0294 19.5294 0 43 0C66.4706 0 85.5 19.0294 85.5 42.5Z" fill="#90ECF4"/>
<g clip-path="url(#clip0_115_1462)">
<path d="M54.3333 48.6667C51.7788 48.6667 49.7083 46.5962 49.7083 44.0417C49.7083 41.4871 51.7788 39.4167 54.3333 39.4167C55.1766 39.4167 55.9652 39.6464 56.6458 40.0403V30.9375H30.4375V57.1458H56.6458V48.0431C55.9652 48.437 55.1766 48.6667 54.3333 48.6667Z" fill="#444BD3"/>
<path d="M43.5417 33.25C46.096 33.25 48.1667 31.1793 48.1667 28.625C48.1667 26.0707 46.096 24 43.5417 24C40.9874 24 38.9167 26.0707 38.9167 28.625C38.9167 31.1793 40.9874 33.25 43.5417 33.25Z" fill="#444BD3"/>
<path d="M28.125 48.6665C30.6793 48.6665 32.75 46.5958 32.75 44.0415C32.75 41.4872 30.6793 39.4165 28.125 39.4165C25.5707 39.4165 23.5 41.4872 23.5 44.0415C23.5 46.5958 25.5707 48.6665 28.125 48.6665Z" fill="#444BD3"/>
<path d="M32.75 44.0414C32.75 42.3302 31.8188 40.8402 30.4375 40.04V48.0421C31.8188 47.2427 32.75 45.7527 32.75 44.0414Z" fill="#444BD3"/>
<path d="M43.5417 33.25C45.2529 33.25 46.7429 32.3188 47.5431 30.9375H39.5403C40.3404 32.3188 41.8304 33.25 43.5417 33.25Z" fill="#444BD3"/>
</g>
<defs>
<clipPath id="clip0_115_1462">
<rect width="37" height="37" fill="white" transform="translate(23.5 24)"/>
</clipPath>
</defs>
</svg>
