<svg width="34" height="24" viewBox="0 0 34 24" fill="none" xmlns="http://www.w3.org/2000/svg">
<path d="M33.0933 11.8966C33.0933 11.8153 33.0933 11.723 33.0896 11.6159C33.0859 11.3167 33.0785 10.9806 33.0711 10.6223C33.0415 9.59187 32.9898 8.5651 32.9086 7.59741C32.7978 6.26408 32.6353 5.15235 32.4137 4.31764C32.1798 3.44654 31.7214 2.65207 31.0843 2.01365C30.4472 1.37523 29.6536 0.915221 28.783 0.679593C27.7378 0.398892 25.6916 0.2253 22.8107 0.11819C21.4404 0.0664819 19.9741 0.0332408 18.5078 0.0147736C17.9945 0.00738666 17.518 0.00369344 17.0896 0H16.0037C15.5753 0.00369344 15.0988 0.00738666 14.5854 0.0147736C13.1191 0.0332408 11.6528 0.0664819 10.2825 0.11819C7.40166 0.228993 5.3518 0.402585 4.31025 0.679593C3.43934 0.914642 2.6455 1.37446 2.00829 2.01297C1.37108 2.65148 0.912872 3.44625 0.679594 4.31764C0.454294 5.15235 0.295475 6.26408 0.184672 7.59741C0.103416 8.5651 0.0517082 9.59187 0.0221606 10.6223C0.0110803 10.9806 0.00738683 11.3167 0.00369339 11.6159C0.00369339 11.723 0 11.8153 0 11.8966V12.1034C0 12.1847 -5.6345e-08 12.277 0.00369339 12.3841C0.00738683 12.6833 0.0147737 13.0194 0.0221606 13.3777C0.0517082 14.4081 0.103416 15.4349 0.184672 16.4026C0.295475 17.7359 0.457987 18.8476 0.679594 19.6824C1.15235 21.4515 2.54109 22.8476 4.31025 23.3204C5.3518 23.6011 7.40166 23.7747 10.2825 23.8818C11.6528 23.9335 13.1191 23.9668 14.5854 23.9852C15.0988 23.9926 15.5753 23.9963 16.0037 24H17.0896C17.518 23.9963 17.9945 23.9926 18.5078 23.9852C19.9741 23.9668 21.4404 23.9335 22.8107 23.8818C25.6916 23.771 27.7415 23.5974 28.783 23.3204C30.5522 22.8476 31.9409 21.4552 32.4137 19.6824C32.639 18.8476 32.7978 17.7359 32.9086 16.4026C32.9898 15.4349 33.0415 14.4081 33.0711 13.3777C33.0822 13.0194 33.0859 12.6833 33.0896 12.3841C33.0896 12.277 33.0933 12.1847 33.0933 12.1034V11.8966ZM30.434 12.0886C30.434 12.1662 30.434 12.2512 30.4303 12.3509C30.4266 12.639 30.4192 12.9566 30.4118 13.3001C30.386 14.2825 30.3343 15.265 30.2567 16.1773C30.157 17.3666 30.0166 18.3416 29.843 18.9954C29.614 19.8486 28.9418 20.5245 28.0923 20.7498C27.3167 20.9566 25.3629 21.1228 22.7073 21.2225C21.3629 21.2742 19.915 21.3075 18.4709 21.3259C17.9649 21.3333 17.4958 21.337 17.0748 21.337H16.0185L14.6223 21.3259C13.1782 21.3075 11.7341 21.2742 10.386 21.2225C7.73038 21.1191 5.77285 20.9566 5.00092 20.7498C4.15143 20.5208 3.47922 19.8486 3.25023 18.9954C3.07664 18.3416 2.93629 17.3666 2.83656 16.1773C2.759 15.265 2.71099 14.2825 2.68144 13.3001C2.67036 12.9566 2.66667 12.6353 2.66297 12.3509C2.66297 12.2512 2.65928 12.1625 2.65928 12.0886V11.9114C2.65928 11.8338 2.65928 11.7488 2.66297 11.6491C2.66667 11.361 2.67405 11.0434 2.68144 10.6999C2.70729 9.71745 2.759 8.73499 2.83656 7.82271C2.93629 6.63342 3.07664 5.65836 3.25023 5.00462C3.47922 4.15143 4.15143 3.47553 5.00092 3.25023C5.77655 3.0434 7.73038 2.87719 10.386 2.77747C11.7304 2.72576 13.1782 2.69252 14.6223 2.67405C15.1283 2.66667 15.5974 2.66297 16.0185 2.66297H17.0748L18.4709 2.67405C19.915 2.69252 21.3592 2.72576 22.7073 2.77747C25.3629 2.88089 27.3204 3.0434 28.0923 3.25023C28.9418 3.47922 29.614 4.15143 29.843 5.00462C30.0166 5.65836 30.157 6.63342 30.2567 7.82271C30.3343 8.73499 30.3823 9.71745 30.4118 10.6999C30.4229 11.0434 30.4266 11.3647 30.4303 11.6491C30.4303 11.7488 30.434 11.8375 30.434 11.9114V12.0886ZM13.2595 16.9492L21.8283 11.9631L13.2595 7.05078V16.9492Z" fill="#525252"/>
</svg>
